<svg width="842" height="474" viewBox="0 0 842 474" fill="none" xmlns="http://www.w3.org/2000/svg">
<rect width="842" height="474" rx="24" fill="white"/>
<path d="M326.051 57V44.928H321.779V42.648H322.475C323.627 42.648 324.515 42.376 325.139 41.832C325.763 41.288 326.115 40.576 326.195 39.696H329.051V57H326.051ZM338.42 57.216C336.34 57.216 334.732 56.544 333.596 55.2C332.476 53.84 331.916 51.784 331.916 49.032C331.916 45.784 332.492 43.376 333.644 41.808C334.812 40.24 336.508 39.456 338.732 39.456C340.444 39.456 341.828 39.888 342.884 40.752C343.956 41.6 344.572 42.728 344.732 44.136H341.732C341.604 43.432 341.26 42.912 340.7 42.576C340.14 42.224 339.476 42.048 338.708 42.048C337.748 42.048 336.988 42.304 336.428 42.816C335.868 43.312 335.468 44.032 335.228 44.976C334.988 45.904 334.86 47.016 334.844 48.312H334.988C335.276 47.608 335.796 47.032 336.548 46.584C337.3 46.136 338.22 45.912 339.308 45.912C340.396 45.912 341.348 46.144 342.164 46.608C342.98 47.056 343.612 47.688 344.06 48.504C344.524 49.304 344.756 50.248 344.756 51.336C344.756 52.52 344.484 53.552 343.94 54.432C343.412 55.312 342.668 56 341.708 56.496C340.764 56.976 339.668 57.216 338.42 57.216ZM338.516 54.6C339.476 54.6 340.252 54.304 340.844 53.712C341.436 53.12 341.732 52.336 341.732 51.36C341.732 50.4 341.436 49.632 340.844 49.056C340.252 48.48 339.484 48.192 338.54 48.192C337.532 48.192 336.732 48.504 336.14 49.128C335.564 49.736 335.276 50.504 335.276 51.432C335.276 52.408 335.572 53.184 336.164 53.76C336.756 54.32 337.54 54.6 338.516 54.6ZM348.238 57.192C347.758 57.192 347.366 57.056 347.062 56.784C346.774 56.496 346.63 56.128 346.63 55.68C346.63 55.232 346.774 54.872 347.062 54.6C347.366 54.312 347.758 54.168 348.238 54.168C348.702 54.168 349.078 54.312 349.366 54.6C349.67 54.872 349.822 55.232 349.822 55.68C349.822 56.128 349.67 56.496 349.366 56.784C349.078 57.056 348.702 57.192 348.238 57.192ZM348.238 47.064C347.758 47.064 347.366 46.928 347.062 46.656C346.774 46.368 346.63 46 346.63 45.552C346.63 45.104 346.774 44.744 347.062 44.472C347.366 44.184 347.758 44.04 348.238 44.04C348.702 44.04 349.078 44.184 349.366 44.472C349.67 44.744 349.822 45.104 349.822 45.552C349.822 46 349.67 46.368 349.366 46.656C349.078 46.928 348.702 47.064 348.238 47.064ZM358.407 39.456C360.487 39.456 362.087 40.136 363.207 41.496C364.327 42.84 364.887 44.888 364.887 47.64C364.887 50.888 364.303 53.296 363.135 54.864C361.983 56.432 360.295 57.216 358.071 57.216C356.375 57.216 354.991 56.792 353.919 55.944C352.847 55.08 352.231 53.944 352.071 52.536H355.071C355.215 53.24 355.567 53.768 356.127 54.12C356.687 54.456 357.343 54.624 358.095 54.624C359.071 54.624 359.839 54.376 360.399 53.88C360.959 53.368 361.351 52.648 361.575 51.72C361.815 50.776 361.943 49.656 361.959 48.36H361.815C361.527 49.064 361.007 49.64 360.255 50.088C359.519 50.536 358.599 50.76 357.495 50.76C356.423 50.76 355.471 50.536 354.639 50.088C353.823 49.624 353.183 48.992 352.719 48.192C352.271 47.376 352.047 46.424 352.047 45.336C352.047 44.152 352.311 43.12 352.839 42.24C353.383 41.36 354.127 40.68 355.071 40.2C356.031 39.704 357.143 39.456 358.407 39.456ZM358.287 42.072C357.343 42.072 356.575 42.368 355.983 42.96C355.391 43.552 355.095 44.336 355.095 45.312C355.095 46.272 355.383 47.04 355.959 47.616C356.551 48.192 357.319 48.48 358.263 48.48C359.271 48.48 360.071 48.176 360.663 47.568C361.255 46.944 361.551 46.168 361.551 45.24C361.551 44.264 361.247 43.496 360.639 42.936C360.047 42.36 359.263 42.072 358.287 42.072ZM371.675 57L377.675 39.504H382.187L388.187 57H384.875L383.651 53.16H376.235L374.987 57H371.675ZM379.163 44.16L377.051 50.688H382.835L380.699 44.16L380.027 41.928H379.859L379.163 44.16ZM394.944 57.24C393.264 57.24 391.936 56.864 390.96 56.112C389.984 55.36 389.48 54.36 389.448 53.112H392.4C392.464 53.8 392.728 54.304 393.192 54.624C393.656 54.928 394.264 55.08 395.016 55.08C395.784 55.08 396.36 54.944 396.744 54.672C397.144 54.384 397.344 53.992 397.344 53.496C397.344 52.904 397.136 52.504 396.72 52.296C396.304 52.072 395.608 51.888 394.632 51.744C393 51.504 391.784 51.12 390.984 50.592C390.184 50.048 389.784 49.168 389.784 47.952C389.784 47.152 390 46.456 390.432 45.864C390.88 45.272 391.496 44.816 392.28 44.496C393.064 44.16 393.976 43.992 395.016 43.992C396.536 43.992 397.752 44.352 398.664 45.072C399.592 45.776 400.08 46.72 400.128 47.904H397.176C397.144 47.28 396.928 46.832 396.528 46.56C396.128 46.272 395.6 46.128 394.944 46.128C394.272 46.128 393.744 46.264 393.36 46.536C392.976 46.808 392.784 47.192 392.784 47.688C392.784 48.232 393.016 48.616 393.48 48.84C393.944 49.064 394.712 49.248 395.784 49.392C397.32 49.6 398.472 49.976 399.24 50.52C400.008 51.064 400.392 51.968 400.392 53.232C400.392 54.512 399.888 55.504 398.88 56.208C397.888 56.896 396.576 57.24 394.944 57.24ZM402.874 61.008V44.232H405.73L405.85 46.56H406.018C406.29 45.792 406.794 45.176 407.53 44.712C408.266 44.232 409.138 43.992 410.146 43.992C411.186 43.992 412.098 44.256 412.882 44.784C413.666 45.312 414.274 46.072 414.706 47.064C415.154 48.04 415.378 49.224 415.378 50.616C415.378 52.696 414.898 54.32 413.938 55.488C412.978 56.656 411.714 57.24 410.146 57.24C409.138 57.24 408.266 57.008 407.53 56.544C406.794 56.064 406.29 55.448 406.018 54.696H405.874V61.008H402.874ZM409.018 54.792C410.09 54.792 410.906 54.424 411.466 53.688C412.026 52.936 412.306 51.912 412.306 50.616C412.306 49.336 412.034 48.32 411.49 47.568C410.946 46.816 410.146 46.44 409.09 46.44C408.034 46.44 407.234 46.784 406.69 47.472C406.146 48.16 405.874 48.984 405.874 49.944V51.312C405.874 52.288 406.154 53.112 406.714 53.784C407.274 54.456 408.042 54.792 409.018 54.792ZM423.646 57.216C422.35 57.216 421.246 56.952 420.334 56.424C419.422 55.88 418.726 55.12 418.246 54.144C417.782 53.152 417.55 52 417.55 50.688C417.55 49.328 417.79 48.152 418.27 47.16C418.75 46.152 419.438 45.376 420.334 44.832C421.23 44.272 422.302 43.992 423.55 43.992C424.942 43.992 426.086 44.304 426.982 44.928C427.894 45.552 428.55 46.408 428.95 47.496C429.35 48.584 429.494 49.832 429.382 51.24H420.478C420.478 52.472 420.766 53.4 421.342 54.024C421.918 54.648 422.686 54.96 423.646 54.96C424.398 54.96 425.006 54.8 425.47 54.48C425.934 54.144 426.254 53.712 426.43 53.184H429.262C429.07 54.432 428.454 55.416 427.414 56.136C426.39 56.856 425.134 57.216 423.646 57.216ZM423.55 46.272C422.67 46.272 421.958 46.536 421.414 47.064C420.886 47.592 420.582 48.336 420.502 49.296H426.43C426.398 48.272 426.11 47.512 425.566 47.016C425.038 46.52 424.366 46.272 423.55 46.272ZM437.55 57.216C436.286 57.216 435.182 56.944 434.238 56.4C433.294 55.856 432.566 55.088 432.054 54.096C431.542 53.104 431.286 51.944 431.286 50.616C431.286 49.288 431.542 48.128 432.054 47.136C432.582 46.144 433.318 45.376 434.262 44.832C435.222 44.272 436.35 43.992 437.646 43.992C438.702 43.992 439.646 44.192 440.478 44.592C441.31 44.976 441.974 45.52 442.47 46.224C442.966 46.928 443.246 47.736 443.31 48.648H440.382C440.238 47.928 439.91 47.384 439.398 47.016C438.886 46.648 438.278 46.464 437.574 46.464C436.518 46.464 435.71 46.848 435.15 47.616C434.59 48.368 434.31 49.368 434.31 50.616C434.31 51.976 434.606 53.008 435.198 53.712C435.79 54.4 436.574 54.744 437.55 54.744C438.366 54.744 439.022 54.536 439.518 54.12C440.03 53.704 440.342 53.152 440.454 52.464H443.358C443.294 53.424 442.998 54.264 442.47 54.984C441.958 55.688 441.278 56.24 440.43 56.64C439.582 57.024 438.622 57.216 437.55 57.216ZM449.965 57C448.941 57 448.173 56.76 447.661 56.28C447.165 55.784 446.917 55 446.917 53.928V46.656H444.565V44.232H446.917V40.632L449.917 40.32V44.232H452.605V46.656H449.917V53.376C449.917 53.808 450.013 54.112 450.205 54.288C450.413 54.448 450.709 54.528 451.093 54.528H452.629V57H449.965ZM460.44 57V39.504H469.056C470.816 39.504 472.2 39.904 473.208 40.704C474.232 41.504 474.744 42.688 474.744 44.256C474.744 45.344 474.456 46.264 473.88 47.016C473.32 47.752 472.536 48.256 471.528 48.528V48.672C472.536 48.848 473.264 49.224 473.712 49.8C474.16 50.36 474.384 51.128 474.384 52.104V55.056C474.384 55.36 474.392 55.68 474.408 56.016C474.44 56.336 474.528 56.664 474.672 57H471.456C471.36 56.776 471.288 56.496 471.24 56.16C471.208 55.824 471.192 55.448 471.192 55.032V52.656C471.192 51.856 470.992 51.24 470.592 50.808C470.208 50.376 469.44 50.16 468.288 50.16H463.608V57H460.44ZM468.336 42.144H463.608V47.64H468.336C469.456 47.64 470.256 47.376 470.736 46.848C471.232 46.304 471.48 45.632 471.48 44.832C471.48 43.872 471.184 43.184 470.592 42.768C470.016 42.352 469.264 42.144 468.336 42.144ZM482.13 57.216C481.074 57.216 480.154 56.952 479.37 56.424C478.586 55.896 477.978 55.144 477.546 54.168C477.114 53.176 476.898 51.992 476.898 50.616C476.898 48.52 477.378 46.896 478.338 45.744C479.298 44.576 480.562 43.992 482.13 43.992C483.138 43.992 484.002 44.224 484.722 44.688C485.458 45.152 485.97 45.768 486.258 46.536H486.426L486.546 44.232H489.378V57H486.546L486.426 54.672H486.258C485.97 55.424 485.458 56.04 484.722 56.52C484.002 56.984 483.138 57.216 482.13 57.216ZM483.186 54.768C484.226 54.768 485.018 54.432 485.562 53.76C486.106 53.072 486.378 52.248 486.378 51.288V49.92C486.378 48.928 486.098 48.104 485.538 47.448C484.978 46.776 484.218 46.44 483.258 46.44C482.186 46.44 481.362 46.816 480.786 47.568C480.226 48.304 479.946 49.32 479.946 50.616C479.946 51.896 480.218 52.912 480.762 53.664C481.322 54.4 482.13 54.768 483.186 54.768ZM503.296 42.504C502.816 42.504 502.416 42.376 502.096 42.12C501.792 41.848 501.64 41.488 501.64 41.04C501.64 40.576 501.792 40.216 502.096 39.96C502.416 39.704 502.816 39.576 503.296 39.576C503.792 39.576 504.192 39.704 504.496 39.96C504.816 40.216 504.976 40.576 504.976 41.04C504.976 41.488 504.816 41.848 504.496 42.12C504.192 42.376 503.792 42.504 503.296 42.504ZM496.816 57C495.632 57 494.832 56.744 494.416 56.232C494 55.72 493.792 55.008 493.792 54.096V46.656H491.44V44.232H493.792V40.632L496.792 40.32V44.232H504.784V57H501.784V46.656H496.792V53.544C496.792 53.944 496.872 54.216 497.032 54.36C497.208 54.488 497.48 54.552 497.848 54.552H499.48V57H496.816ZM513.63 57.216C512.366 57.216 511.254 56.952 510.294 56.424C509.35 55.896 508.614 55.136 508.086 54.144C507.558 53.152 507.294 51.976 507.294 50.616C507.294 49.304 507.542 48.152 508.038 47.16C508.55 46.168 509.278 45.392 510.222 44.832C511.166 44.272 512.302 43.992 513.63 43.992C514.878 43.992 515.974 44.264 516.918 44.808C517.862 45.336 518.598 46.096 519.126 47.088C519.654 48.064 519.918 49.24 519.918 50.616C519.918 51.928 519.662 53.08 519.15 54.072C518.654 55.064 517.934 55.84 516.99 56.4C516.062 56.944 514.942 57.216 513.63 57.216ZM513.606 54.744C514.598 54.744 515.39 54.4 515.982 53.712C516.59 53.008 516.894 51.976 516.894 50.616C516.894 49.256 516.598 48.224 516.006 47.52C515.414 46.816 514.622 46.464 513.63 46.464C512.638 46.464 511.838 46.816 511.23 47.52C510.622 48.224 510.318 49.256 510.318 50.616C510.318 51.96 510.614 52.984 511.206 53.688C511.798 54.392 512.598 54.744 513.606 54.744Z" fill="black"/>
<path d="M330.932 84L327.818 70.878H330.446L331.94 78.132L332.588 81.786H332.714L333.398 78.132L334.964 70.878H337.934L339.5 77.934L340.22 81.804H340.346L340.994 77.934L342.434 70.878H345.062L341.948 84H338.654L337.25 77.52L336.512 73.524H336.386L335.63 77.52L334.208 84H330.932ZM346.681 84V74.424H348.931V84H346.681ZM347.815 73.128C347.455 73.128 347.155 73.032 346.915 72.84C346.687 72.636 346.573 72.366 346.573 72.03C346.573 71.682 346.687 71.412 346.915 71.22C347.155 71.028 347.455 70.932 347.815 70.932C348.175 70.932 348.469 71.028 348.697 71.22C348.937 71.412 349.057 71.682 349.057 72.03C349.057 72.366 348.937 72.636 348.697 72.84C348.469 73.032 348.175 73.128 347.815 73.128ZM354.794 84.162C354.002 84.162 353.312 83.964 352.724 83.568C352.136 83.172 351.68 82.608 351.356 81.876C351.032 81.132 350.87 80.244 350.87 79.212C350.87 77.64 351.23 76.422 351.95 75.558C352.67 74.682 353.618 74.244 354.794 74.244C355.55 74.244 356.198 74.418 356.738 74.766C357.29 75.114 357.674 75.576 357.89 76.152H357.98V70.878H360.23V84H358.106L358.016 82.254H357.89C357.674 82.818 357.29 83.28 356.738 83.64C356.198 83.988 355.55 84.162 354.794 84.162ZM355.586 82.326C356.366 82.326 356.96 82.074 357.368 81.57C357.776 81.054 357.98 80.436 357.98 79.716V78.69C357.98 77.946 357.77 77.328 357.35 76.836C356.93 76.332 356.36 76.08 355.64 76.08C354.836 76.08 354.218 76.362 353.786 76.926C353.366 77.478 353.156 78.24 353.156 79.212C353.156 80.172 353.36 80.934 353.768 81.498C354.188 82.05 354.794 82.326 355.586 82.326ZM366.62 84.162C365.648 84.162 364.82 83.964 364.136 83.568C363.452 83.16 362.93 82.59 362.57 81.858C362.222 81.114 362.048 80.25 362.048 79.266C362.048 78.246 362.228 77.364 362.588 76.62C362.948 75.864 363.464 75.282 364.136 74.874C364.808 74.454 365.612 74.244 366.548 74.244C367.592 74.244 368.45 74.478 369.122 74.946C369.806 75.414 370.298 76.056 370.598 76.872C370.898 77.688 371.006 78.624 370.922 79.68H364.244C364.244 80.604 364.46 81.3 364.892 81.768C365.324 82.236 365.9 82.47 366.62 82.47C367.184 82.47 367.64 82.35 367.988 82.11C368.336 81.858 368.576 81.534 368.708 81.138H370.832C370.688 82.074 370.226 82.812 369.446 83.352C368.678 83.892 367.736 84.162 366.62 84.162ZM366.548 75.954C365.888 75.954 365.354 76.152 364.946 76.548C364.55 76.944 364.322 77.502 364.262 78.222H368.708C368.684 77.454 368.468 76.884 368.06 76.512C367.664 76.14 367.16 75.954 366.548 75.954ZM376.364 84.18C375.104 84.18 374.108 83.898 373.376 83.334C372.644 82.77 372.266 82.02 372.242 81.084H374.456C374.504 81.6 374.702 81.978 375.05 82.218C375.398 82.446 375.854 82.56 376.418 82.56C376.994 82.56 377.426 82.458 377.714 82.254C378.014 82.038 378.164 81.744 378.164 81.372C378.164 80.928 378.008 80.628 377.696 80.472C377.384 80.304 376.862 80.166 376.13 80.058C374.906 79.878 373.994 79.59 373.394 79.194C372.794 78.786 372.494 78.126 372.494 77.214C372.494 76.614 372.656 76.092 372.98 75.648C373.316 75.204 373.778 74.862 374.366 74.622C374.954 74.37 375.638 74.244 376.418 74.244C377.558 74.244 378.47 74.514 379.154 75.054C379.85 75.582 380.216 76.29 380.252 77.178H378.038C378.014 76.71 377.852 76.374 377.552 76.17C377.252 75.954 376.856 75.846 376.364 75.846C375.86 75.846 375.464 75.948 375.176 76.152C374.888 76.356 374.744 76.644 374.744 77.016C374.744 77.424 374.918 77.712 375.266 77.88C375.614 78.048 376.19 78.186 376.994 78.294C378.146 78.45 379.01 78.732 379.586 79.14C380.162 79.548 380.45 80.226 380.45 81.174C380.45 82.134 380.072 82.878 379.316 83.406C378.572 83.922 377.588 84.18 376.364 84.18ZM386.593 84.162C385.645 84.162 384.817 83.958 384.109 83.55C383.401 83.142 382.855 82.566 382.471 81.822C382.087 81.078 381.895 80.208 381.895 79.212C381.895 78.216 382.087 77.346 382.471 76.602C382.867 75.858 383.419 75.282 384.127 74.874C384.847 74.454 385.693 74.244 386.665 74.244C387.457 74.244 388.165 74.394 388.789 74.694C389.413 74.982 389.911 75.39 390.283 75.918C390.655 76.446 390.865 77.052 390.913 77.736H388.717C388.609 77.196 388.363 76.788 387.979 76.512C387.595 76.236 387.139 76.098 386.611 76.098C385.819 76.098 385.213 76.386 384.793 76.962C384.373 77.526 384.163 78.276 384.163 79.212C384.163 80.232 384.385 81.006 384.829 81.534C385.273 82.05 385.861 82.308 386.593 82.308C387.205 82.308 387.697 82.152 388.069 81.84C388.453 81.528 388.687 81.114 388.771 80.598H390.949C390.901 81.318 390.679 81.948 390.283 82.488C389.899 83.016 389.389 83.43 388.753 83.73C388.117 84.018 387.397 84.162 386.593 84.162ZM392.735 84V74.424H394.769L394.877 76.026H394.949C395.165 75.414 395.513 74.976 395.993 74.712C396.485 74.436 397.043 74.298 397.667 74.298C397.775 74.298 397.871 74.298 397.955 74.298C398.051 74.298 398.141 74.298 398.225 74.298V76.422C398.153 76.422 398.063 76.422 397.955 76.422C397.859 76.41 397.751 76.404 397.631 76.404C396.755 76.404 396.101 76.614 395.669 77.034C395.249 77.442 395.021 78.018 394.985 78.762V84H392.735ZM403.481 84.162C402.509 84.162 401.681 83.964 400.997 83.568C400.313 83.16 399.791 82.59 399.431 81.858C399.083 81.114 398.909 80.25 398.909 79.266C398.909 78.246 399.089 77.364 399.449 76.62C399.809 75.864 400.325 75.282 400.997 74.874C401.669 74.454 402.473 74.244 403.409 74.244C404.453 74.244 405.311 74.478 405.983 74.946C406.667 75.414 407.159 76.056 407.459 76.872C407.759 77.688 407.867 78.624 407.783 79.68H401.105C401.105 80.604 401.321 81.3 401.753 81.768C402.185 82.236 402.761 82.47 403.481 82.47C404.045 82.47 404.501 82.35 404.849 82.11C405.197 81.858 405.437 81.534 405.569 81.138H407.693C407.549 82.074 407.087 82.812 406.307 83.352C405.539 83.892 404.597 84.162 403.481 84.162ZM403.409 75.954C402.749 75.954 402.215 76.152 401.807 76.548C401.411 76.944 401.183 77.502 401.123 78.222H405.569C405.545 77.454 405.329 76.884 404.921 76.512C404.525 76.14 404.021 75.954 403.409 75.954ZM413.729 84.162C412.757 84.162 411.929 83.964 411.245 83.568C410.561 83.16 410.039 82.59 409.679 81.858C409.331 81.114 409.157 80.25 409.157 79.266C409.157 78.246 409.337 77.364 409.697 76.62C410.057 75.864 410.573 75.282 411.245 74.874C411.917 74.454 412.721 74.244 413.657 74.244C414.701 74.244 415.559 74.478 416.231 74.946C416.915 75.414 417.407 76.056 417.707 76.872C418.007 77.688 418.115 78.624 418.031 79.68H411.353C411.353 80.604 411.569 81.3 412.001 81.768C412.433 82.236 413.009 82.47 413.729 82.47C414.293 82.47 414.749 82.35 415.097 82.11C415.445 81.858 415.685 81.534 415.817 81.138H417.941C417.797 82.074 417.335 82.812 416.555 83.352C415.787 83.892 414.845 84.162 413.729 84.162ZM413.657 75.954C412.997 75.954 412.463 76.152 412.055 76.548C411.659 76.944 411.431 77.502 411.371 78.222H415.817C415.793 77.454 415.577 76.884 415.169 76.512C414.773 76.14 414.269 75.954 413.657 75.954ZM419.823 84V74.424H421.983L422.073 76.242H422.181C422.457 75.582 422.877 75.084 423.441 74.748C424.005 74.412 424.635 74.244 425.331 74.244C425.979 74.244 426.555 74.382 427.059 74.658C427.575 74.922 427.983 75.348 428.283 75.936C428.583 76.512 428.733 77.286 428.733 78.258V84H426.483V78.744C426.483 77.844 426.321 77.178 425.997 76.746C425.673 76.314 425.163 76.098 424.467 76.098C423.963 76.098 423.531 76.218 423.171 76.458C422.823 76.698 422.553 77.016 422.361 77.412C422.169 77.808 422.073 78.246 422.073 78.726V84H419.823ZM435.031 84V70.878H437.407V76.242H444.175V70.878H446.551V84H444.175V78.294H437.407V84H435.031ZM449.217 84V70.878H454.671C455.943 70.878 457.023 71.154 457.911 71.706C458.811 72.246 459.495 73.014 459.963 74.01C460.431 74.994 460.665 76.14 460.665 77.448C460.665 78.756 460.431 79.902 459.963 80.886C459.495 81.87 458.811 82.638 457.911 83.19C457.023 83.73 455.943 84 454.671 84H449.217ZM451.593 81.948H454.293C455.073 81.948 455.757 81.798 456.345 81.498C456.933 81.186 457.389 80.7 457.713 80.04C458.049 79.368 458.217 78.486 458.217 77.394C458.217 76.326 458.049 75.462 457.713 74.802C457.389 74.142 456.933 73.662 456.345 73.362C455.757 73.062 455.073 72.912 454.293 72.912H451.593V81.948ZM470.363 84L465.665 70.878H468.311L470.759 78.69L471.875 82.092H472.019L473.135 78.69L475.601 70.878H478.229L473.549 84H470.363ZM479.8 84V74.424H482.05V84H479.8ZM480.934 73.128C480.574 73.128 480.274 73.032 480.034 72.84C479.806 72.636 479.692 72.366 479.692 72.03C479.692 71.682 479.806 71.412 480.034 71.22C480.274 71.028 480.574 70.932 480.934 70.932C481.294 70.932 481.588 71.028 481.816 71.22C482.056 71.412 482.176 71.682 482.176 72.03C482.176 72.366 482.056 72.636 481.816 72.84C481.588 73.032 481.294 73.128 480.934 73.128ZM487.914 84.162C487.122 84.162 486.432 83.964 485.844 83.568C485.256 83.172 484.8 82.608 484.476 81.876C484.152 81.132 483.99 80.244 483.99 79.212C483.99 77.64 484.35 76.422 485.07 75.558C485.79 74.682 486.738 74.244 487.914 74.244C488.67 74.244 489.318 74.418 489.858 74.766C490.41 75.114 490.794 75.576 491.01 76.152H491.1V70.878H493.35V84H491.226L491.136 82.254H491.01C490.794 82.818 490.41 83.28 489.858 83.64C489.318 83.988 488.67 84.162 487.914 84.162ZM488.706 82.326C489.486 82.326 490.08 82.074 490.488 81.57C490.896 81.054 491.1 80.436 491.1 79.716V78.69C491.1 77.946 490.89 77.328 490.47 76.836C490.05 76.332 489.48 76.08 488.76 76.08C487.956 76.08 487.338 76.362 486.906 76.926C486.486 77.478 486.276 78.24 486.276 79.212C486.276 80.172 486.48 80.934 486.888 81.498C487.308 82.05 487.914 82.326 488.706 82.326ZM499.739 84.162C498.767 84.162 497.939 83.964 497.255 83.568C496.571 83.16 496.049 82.59 495.689 81.858C495.341 81.114 495.167 80.25 495.167 79.266C495.167 78.246 495.347 77.364 495.707 76.62C496.067 75.864 496.583 75.282 497.255 74.874C497.927 74.454 498.731 74.244 499.667 74.244C500.711 74.244 501.569 74.478 502.241 74.946C502.925 75.414 503.417 76.056 503.717 76.872C504.017 77.688 504.125 78.624 504.041 79.68H497.363C497.363 80.604 497.579 81.3 498.011 81.768C498.443 82.236 499.019 82.47 499.739 82.47C500.303 82.47 500.759 82.35 501.107 82.11C501.455 81.858 501.695 81.534 501.827 81.138H503.951C503.807 82.074 503.345 82.812 502.565 83.352C501.797 83.892 500.855 84.162 499.739 84.162ZM499.667 75.954C499.007 75.954 498.473 76.152 498.065 76.548C497.669 76.944 497.441 77.502 497.381 78.222H501.827C501.803 77.454 501.587 76.884 501.179 76.512C500.783 76.14 500.279 75.954 499.667 75.954ZM510.221 84.162C509.273 84.162 508.439 83.964 507.719 83.568C507.011 83.172 506.459 82.602 506.063 81.858C505.667 81.114 505.469 80.232 505.469 79.212C505.469 78.228 505.655 77.364 506.027 76.62C506.411 75.876 506.957 75.294 507.665 74.874C508.373 74.454 509.225 74.244 510.221 74.244C511.157 74.244 511.979 74.448 512.687 74.856C513.395 75.252 513.947 75.822 514.343 76.566C514.739 77.298 514.937 78.18 514.937 79.212C514.937 80.196 514.745 81.06 514.361 81.804C513.989 82.548 513.449 83.13 512.741 83.55C512.045 83.958 511.205 84.162 510.221 84.162ZM510.203 82.308C510.947 82.308 511.541 82.05 511.985 81.534C512.441 81.006 512.669 80.232 512.669 79.212C512.669 78.192 512.447 77.418 512.003 76.89C511.559 76.362 510.965 76.098 510.221 76.098C509.477 76.098 508.877 76.362 508.421 76.89C507.965 77.418 507.737 78.192 507.737 79.212C507.737 80.22 507.959 80.988 508.403 81.516C508.847 82.044 509.447 82.308 510.203 82.308Z" fill="black"/>
<rect x="181" y="129" width="480" height="270" rx="8" fill="#007BFF" stroke="#0056B3" stroke-width="2"/>
<path d="M661.707 436.707C662.098 436.317 662.098 435.683 661.707 435.293L655.343 428.929C654.953 428.538 654.319 428.538 653.929 428.929C653.538 429.319 653.538 429.953 653.929 430.343L659.586 436L653.929 441.657C653.538 442.047 653.538 442.681 653.929 443.071C654.319 443.462 654.953 443.462 655.343 443.071L661.707 436.707ZM181 436V437H661V436V435H181V436Z" fill="black"/>
<path d="M403.382 435V424.94H399.822V423.04H400.402C401.362 423.04 402.102 422.813 402.622 422.36C403.142 421.907 403.435 421.313 403.502 420.58H405.882V435H403.382ZM413.509 420.38C415.242 420.38 416.576 420.947 417.509 422.08C418.442 423.2 418.909 424.907 418.909 427.2C418.909 429.907 418.422 431.913 417.449 433.22C416.489 434.527 415.082 435.18 413.229 435.18C411.816 435.18 410.662 434.827 409.769 434.12C408.876 433.4 408.362 432.453 408.229 431.28H410.729C410.849 431.867 411.142 432.307 411.609 432.6C412.076 432.88 412.622 433.02 413.249 433.02C414.062 433.02 414.702 432.813 415.169 432.4C415.636 431.973 415.962 431.373 416.149 430.6C416.349 429.813 416.456 428.88 416.469 427.8H416.349C416.109 428.387 415.676 428.867 415.049 429.24C414.436 429.613 413.669 429.8 412.749 429.8C411.856 429.8 411.062 429.613 410.369 429.24C409.689 428.853 409.156 428.327 408.769 427.66C408.396 426.98 408.209 426.187 408.209 425.28C408.209 424.293 408.429 423.433 408.869 422.7C409.322 421.967 409.942 421.4 410.729 421C411.529 420.587 412.456 420.38 413.509 420.38ZM413.409 422.56C412.622 422.56 411.982 422.807 411.489 423.3C410.996 423.793 410.749 424.447 410.749 425.26C410.749 426.06 410.989 426.7 411.469 427.18C411.962 427.66 412.602 427.9 413.389 427.9C414.229 427.9 414.896 427.647 415.389 427.14C415.882 426.62 416.129 425.973 416.129 425.2C416.129 424.387 415.876 423.747 415.369 423.28C414.876 422.8 414.222 422.56 413.409 422.56ZM420.61 435V434.42C420.61 433.527 420.783 432.747 421.13 432.08C421.477 431.4 421.923 430.8 422.47 430.28C423.017 429.747 423.597 429.26 424.21 428.82C424.823 428.38 425.403 427.953 425.95 427.54C426.497 427.113 426.943 426.673 427.29 426.22C427.637 425.767 427.81 425.26 427.81 424.7C427.81 424.02 427.603 423.493 427.19 423.12C426.777 422.747 426.223 422.56 425.53 422.56C424.73 422.56 424.11 422.793 423.67 423.26C423.23 423.727 423.017 424.32 423.03 425.04H420.55C420.577 424.107 420.803 423.293 421.23 422.6C421.657 421.907 422.243 421.373 422.99 421C423.75 420.613 424.637 420.42 425.65 420.42C426.61 420.42 427.437 420.6 428.13 420.96C428.837 421.307 429.377 421.793 429.75 422.42C430.137 423.047 430.33 423.773 430.33 424.6C430.33 425.307 430.177 425.94 429.87 426.5C429.577 427.06 429.19 427.567 428.71 428.02C428.23 428.473 427.71 428.9 427.15 429.3C426.59 429.687 426.043 430.067 425.51 430.44C424.99 430.8 424.537 431.173 424.15 431.56C423.763 431.947 423.503 432.367 423.37 432.82H430.35V435H420.61ZM437.474 435.2C435.768 435.2 434.461 434.553 433.554 433.26C432.648 431.967 432.194 430.153 432.194 427.82C432.194 426.14 432.414 424.753 432.854 423.66C433.294 422.567 433.908 421.753 434.694 421.22C435.494 420.687 436.421 420.42 437.474 420.42C439.194 420.42 440.501 421.067 441.394 422.36C442.301 423.653 442.754 425.473 442.754 427.82C442.754 429.487 442.534 430.867 442.094 431.96C441.654 433.053 441.034 433.867 440.234 434.4C439.448 434.933 438.528 435.2 437.474 435.2ZM437.474 433.08C438.368 433.08 439.048 432.68 439.514 431.88C439.981 431.067 440.214 429.713 440.214 427.82C440.214 425.913 439.981 424.553 439.514 423.74C439.048 422.927 438.368 422.52 437.474 422.52C436.594 422.52 435.914 422.927 435.434 423.74C434.968 424.553 434.734 425.913 434.734 427.82C434.734 429.713 434.968 431.067 435.434 431.88C435.914 432.68 436.594 433.08 437.474 433.08Z" fill="black"/>
<path d="M148 281.567H137.94V285.127H136.04V284.547C136.04 283.587 135.813 282.847 135.36 282.327C134.907 281.807 134.313 281.514 133.58 281.447V279.067H148V281.567ZM148.2 271.42C148.2 273.127 147.553 274.433 146.26 275.34C144.967 276.247 143.153 276.7 140.82 276.7C139.14 276.7 137.753 276.48 136.66 276.04C135.567 275.6 134.753 274.987 134.22 274.2C133.687 273.4 133.42 272.473 133.42 271.42C133.42 269.7 134.067 268.393 135.36 267.5C136.653 266.593 138.473 266.14 140.82 266.14C142.487 266.14 143.867 266.36 144.96 266.8C146.053 267.24 146.867 267.86 147.4 268.66C147.933 269.447 148.2 270.367 148.2 271.42ZM146.08 271.42C146.08 270.527 145.68 269.847 144.88 269.38C144.067 268.913 142.713 268.68 140.82 268.68C138.913 268.68 137.553 268.913 136.74 269.38C135.927 269.847 135.52 270.527 135.52 271.42C135.52 272.3 135.927 272.98 136.74 273.46C137.553 273.927 138.913 274.16 140.82 274.16C142.713 274.16 144.067 273.927 144.88 273.46C145.68 272.98 146.08 272.3 146.08 271.42ZM148.2 258.982C148.2 260.075 148.033 261.022 147.7 261.822C147.353 262.609 146.873 263.215 146.26 263.642C145.647 264.055 144.94 264.262 144.14 264.262C143.26 264.262 142.5 263.995 141.86 263.462C141.22 262.929 140.8 262.215 140.6 261.322H140.48C140.28 262.042 139.887 262.629 139.3 263.082C138.713 263.535 138.033 263.762 137.26 263.762C136.06 263.762 135.12 263.329 134.44 262.462C133.76 261.582 133.42 260.422 133.42 258.982C133.42 257.489 133.773 256.322 134.48 255.482C135.173 254.629 136.1 254.202 137.26 254.202C138.033 254.202 138.713 254.429 139.3 254.882C139.887 255.335 140.28 255.922 140.48 256.642H140.6C140.8 255.749 141.22 255.035 141.86 254.502C142.5 253.969 143.26 253.702 144.14 253.702C144.98 253.702 145.707 253.922 146.32 254.362C146.92 254.802 147.387 255.422 147.72 256.222C148.04 257.009 148.2 257.929 148.2 258.982ZM139.62 258.982C139.62 258.142 139.42 257.535 139.02 257.162C138.607 256.789 138.113 256.602 137.54 256.602C136.993 256.602 136.513 256.789 136.1 257.162C135.687 257.522 135.48 258.129 135.48 258.982C135.48 259.835 135.687 260.449 136.1 260.822C136.513 261.182 136.993 261.362 137.54 261.362C138.113 261.362 138.607 261.175 139.02 260.802C139.42 260.429 139.62 259.822 139.62 258.982ZM146.06 258.982C146.06 258.155 145.86 257.495 145.46 257.002C145.047 256.509 144.487 256.262 143.78 256.262C143.153 256.262 142.62 256.475 142.18 256.902C141.74 257.329 141.52 258.022 141.52 258.982C141.52 259.942 141.74 260.635 142.18 261.062C142.62 261.489 143.153 261.702 143.78 261.702C144.487 261.702 145.047 261.455 145.46 260.962C145.86 260.469 146.06 259.809 146.06 258.982ZM148.2 246.576C148.2 248.283 147.553 249.59 146.26 250.496C144.967 251.403 143.153 251.856 140.82 251.856C139.14 251.856 137.753 251.636 136.66 251.196C135.567 250.756 134.753 250.143 134.22 249.356C133.687 248.556 133.42 247.63 133.42 246.576C133.42 244.856 134.067 243.55 135.36 242.656C136.653 241.75 138.473 241.296 140.82 241.296C142.487 241.296 143.867 241.516 144.96 241.956C146.053 242.396 146.867 243.016 147.4 243.816C147.933 244.603 148.2 245.523 148.2 246.576ZM146.08 246.576C146.08 245.683 145.68 245.003 144.88 244.536C144.067 244.07 142.713 243.836 140.82 243.836C138.913 243.836 137.553 244.07 136.74 244.536C135.927 245.003 135.52 245.683 135.52 246.576C135.52 247.456 135.927 248.136 136.74 248.616C137.553 249.083 138.913 249.316 140.82 249.316C142.713 249.316 144.067 249.083 144.88 248.616C145.68 248.136 146.08 247.456 146.08 246.576Z" fill="black"/>
<path d="M149.707 127.293C149.317 126.902 148.683 126.902 148.293 127.293L141.929 133.657C141.538 134.047 141.538 134.681 141.929 135.071C142.319 135.462 142.953 135.462 143.343 135.071L149 129.414L154.657 135.071C155.047 135.462 155.681 135.462 156.071 135.071C156.462 134.681 156.462 134.047 156.071 133.657L149.707 127.293ZM149 398H150V128H149H148V398H149Z" fill="black"/>
</svg>
