<svg width="738" height="554" viewBox="0 0 738 554" fill="none" xmlns="http://www.w3.org/2000/svg">
<rect width="738" height="554" rx="24" fill="white"/>
<path d="M283.806 57V52.896H275.694V50.616L283.206 39.696H286.806V50.424H289.758V52.896H286.806V57H283.806ZM278.694 50.424H283.806V43.032L278.694 50.424ZM292.425 57.192C291.945 57.192 291.553 57.056 291.249 56.784C290.961 56.496 290.817 56.128 290.817 55.68C290.817 55.232 290.961 54.872 291.249 54.6C291.553 54.312 291.945 54.168 292.425 54.168C292.889 54.168 293.265 54.312 293.553 54.6C293.857 54.872 294.009 55.232 294.009 55.68C294.009 56.128 293.857 56.496 293.553 56.784C293.265 57.056 292.889 57.192 292.425 57.192ZM292.425 47.064C291.945 47.064 291.553 46.928 291.249 46.656C290.961 46.368 290.817 46 290.817 45.552C290.817 45.104 290.961 44.744 291.249 44.472C291.553 44.184 291.945 44.04 292.425 44.04C292.889 44.04 293.265 44.184 293.553 44.472C293.857 44.744 294.009 45.104 294.009 45.552C294.009 46 293.857 46.368 293.553 46.656C293.265 46.928 292.889 47.064 292.425 47.064ZM301.855 57.216C300.639 57.216 299.583 57 298.687 56.568C297.807 56.12 297.111 55.504 296.599 54.72C296.103 53.936 295.831 53.024 295.783 51.984H298.735C298.767 52.816 299.063 53.48 299.623 53.976C300.199 54.456 300.943 54.696 301.855 54.696C302.831 54.696 303.599 54.44 304.159 53.928C304.735 53.416 305.023 52.736 305.023 51.888C305.023 51.008 304.767 50.352 304.255 49.92C303.743 49.472 303.031 49.248 302.119 49.248H300.271V47.016H301.855C302.815 47.016 303.559 46.784 304.087 46.32C304.615 45.84 304.879 45.216 304.879 44.448C304.879 43.664 304.615 43.056 304.087 42.624C303.575 42.192 302.887 41.976 302.023 41.976C301.159 41.976 300.447 42.224 299.887 42.72C299.343 43.2 299.047 43.848 298.999 44.664H296.071C296.103 43.608 296.375 42.696 296.887 41.928C297.399 41.144 298.095 40.544 298.975 40.128C299.871 39.696 300.919 39.48 302.119 39.48C303.847 39.48 305.231 39.896 306.271 40.728C307.311 41.56 307.831 42.688 307.831 44.112C307.831 45.04 307.567 45.84 307.039 46.512C306.527 47.184 305.871 47.656 305.071 47.928V48.072C306.031 48.296 306.775 48.776 307.303 49.512C307.831 50.232 308.095 51.096 308.095 52.104C308.095 53.176 307.831 54.096 307.303 54.864C306.775 55.616 306.039 56.2 305.095 56.616C304.167 57.016 303.087 57.216 301.855 57.216ZM314.808 57L320.808 39.504H325.32L331.32 57H328.008L326.784 53.16H319.368L318.12 57H314.808ZM322.296 44.16L320.184 50.688H325.968L323.832 44.16L323.16 41.928H322.992L322.296 44.16ZM338.077 57.24C336.397 57.24 335.069 56.864 334.093 56.112C333.117 55.36 332.613 54.36 332.581 53.112H335.533C335.597 53.8 335.861 54.304 336.325 54.624C336.789 54.928 337.397 55.08 338.149 55.08C338.917 55.08 339.493 54.944 339.877 54.672C340.277 54.384 340.477 53.992 340.477 53.496C340.477 52.904 340.269 52.504 339.853 52.296C339.437 52.072 338.741 51.888 337.765 51.744C336.133 51.504 334.917 51.12 334.117 50.592C333.317 50.048 332.917 49.168 332.917 47.952C332.917 47.152 333.133 46.456 333.565 45.864C334.013 45.272 334.629 44.816 335.413 44.496C336.197 44.16 337.109 43.992 338.149 43.992C339.669 43.992 340.885 44.352 341.797 45.072C342.725 45.776 343.213 46.72 343.261 47.904H340.309C340.277 47.28 340.061 46.832 339.661 46.56C339.261 46.272 338.733 46.128 338.077 46.128C337.405 46.128 336.877 46.264 336.493 46.536C336.109 46.808 335.917 47.192 335.917 47.688C335.917 48.232 336.149 48.616 336.613 48.84C337.077 49.064 337.845 49.248 338.917 49.392C340.453 49.6 341.605 49.976 342.373 50.52C343.141 51.064 343.525 51.968 343.525 53.232C343.525 54.512 343.021 55.504 342.013 56.208C341.021 56.896 339.709 57.24 338.077 57.24ZM346.006 61.008V44.232H348.862L348.982 46.56H349.15C349.422 45.792 349.926 45.176 350.662 44.712C351.398 44.232 352.27 43.992 353.278 43.992C354.318 43.992 355.23 44.256 356.014 44.784C356.798 45.312 357.406 46.072 357.838 47.064C358.286 48.04 358.51 49.224 358.51 50.616C358.51 52.696 358.03 54.32 357.07 55.488C356.11 56.656 354.846 57.24 353.278 57.24C352.27 57.24 351.398 57.008 350.662 56.544C349.926 56.064 349.422 55.448 349.15 54.696H349.006V61.008H346.006ZM352.15 54.792C353.222 54.792 354.038 54.424 354.598 53.688C355.158 52.936 355.438 51.912 355.438 50.616C355.438 49.336 355.166 48.32 354.622 47.568C354.078 46.816 353.278 46.44 352.222 46.44C351.166 46.44 350.366 46.784 349.822 47.472C349.278 48.16 349.006 48.984 349.006 49.944V51.312C349.006 52.288 349.286 53.112 349.846 53.784C350.406 54.456 351.174 54.792 352.15 54.792ZM366.779 57.216C365.483 57.216 364.379 56.952 363.467 56.424C362.555 55.88 361.859 55.12 361.379 54.144C360.915 53.152 360.683 52 360.683 50.688C360.683 49.328 360.923 48.152 361.403 47.16C361.883 46.152 362.571 45.376 363.467 44.832C364.363 44.272 365.435 43.992 366.683 43.992C368.075 43.992 369.219 44.304 370.115 44.928C371.027 45.552 371.683 46.408 372.083 47.496C372.483 48.584 372.627 49.832 372.515 51.24H363.611C363.611 52.472 363.899 53.4 364.475 54.024C365.051 54.648 365.819 54.96 366.779 54.96C367.531 54.96 368.139 54.8 368.603 54.48C369.067 54.144 369.387 53.712 369.563 53.184H372.395C372.203 54.432 371.587 55.416 370.547 56.136C369.523 56.856 368.267 57.216 366.779 57.216ZM366.683 46.272C365.803 46.272 365.091 46.536 364.547 47.064C364.019 47.592 363.715 48.336 363.635 49.296H369.563C369.531 48.272 369.243 47.512 368.699 47.016C368.171 46.52 367.499 46.272 366.683 46.272ZM380.683 57.216C379.419 57.216 378.315 56.944 377.371 56.4C376.427 55.856 375.699 55.088 375.187 54.096C374.675 53.104 374.419 51.944 374.419 50.616C374.419 49.288 374.675 48.128 375.187 47.136C375.715 46.144 376.451 45.376 377.395 44.832C378.355 44.272 379.483 43.992 380.779 43.992C381.835 43.992 382.779 44.192 383.611 44.592C384.443 44.976 385.107 45.52 385.603 46.224C386.099 46.928 386.379 47.736 386.443 48.648H383.515C383.371 47.928 383.043 47.384 382.531 47.016C382.019 46.648 381.411 46.464 380.707 46.464C379.651 46.464 378.843 46.848 378.283 47.616C377.723 48.368 377.443 49.368 377.443 50.616C377.443 51.976 377.739 53.008 378.331 53.712C378.923 54.4 379.707 54.744 380.683 54.744C381.499 54.744 382.155 54.536 382.651 54.12C383.163 53.704 383.475 53.152 383.587 52.464H386.491C386.427 53.424 386.131 54.264 385.603 54.984C385.091 55.688 384.411 56.24 383.563 56.64C382.715 57.024 381.755 57.216 380.683 57.216ZM393.098 57C392.074 57 391.306 56.76 390.794 56.28C390.298 55.784 390.05 55 390.05 53.928V46.656H387.698V44.232H390.05V40.632L393.05 40.32V44.232H395.738V46.656H393.05V53.376C393.05 53.808 393.146 54.112 393.338 54.288C393.546 54.448 393.842 54.528 394.226 54.528H395.762V57H393.098ZM403.573 57V39.504H412.189C413.949 39.504 415.333 39.904 416.341 40.704C417.365 41.504 417.877 42.688 417.877 44.256C417.877 45.344 417.589 46.264 417.013 47.016C416.453 47.752 415.669 48.256 414.661 48.528V48.672C415.669 48.848 416.397 49.224 416.845 49.8C417.293 50.36 417.517 51.128 417.517 52.104V55.056C417.517 55.36 417.525 55.68 417.541 56.016C417.573 56.336 417.661 56.664 417.805 57H414.589C414.493 56.776 414.421 56.496 414.373 56.16C414.341 55.824 414.325 55.448 414.325 55.032V52.656C414.325 51.856 414.125 51.24 413.725 50.808C413.341 50.376 412.573 50.16 411.421 50.16H406.741V57H403.573ZM411.469 42.144H406.741V47.64H411.469C412.589 47.64 413.389 47.376 413.869 46.848C414.365 46.304 414.613 45.632 414.613 44.832C414.613 43.872 414.317 43.184 413.725 42.768C413.149 42.352 412.397 42.144 411.469 42.144ZM425.262 57.216C424.206 57.216 423.286 56.952 422.502 56.424C421.718 55.896 421.11 55.144 420.678 54.168C420.246 53.176 420.03 51.992 420.03 50.616C420.03 48.52 420.51 46.896 421.47 45.744C422.43 44.576 423.694 43.992 425.262 43.992C426.27 43.992 427.134 44.224 427.854 44.688C428.59 45.152 429.102 45.768 429.39 46.536H429.558L429.678 44.232H432.51V57H429.678L429.558 54.672H429.39C429.102 55.424 428.59 56.04 427.854 56.52C427.134 56.984 426.27 57.216 425.262 57.216ZM426.318 54.768C427.358 54.768 428.15 54.432 428.694 53.76C429.238 53.072 429.51 52.248 429.51 51.288V49.92C429.51 48.928 429.23 48.104 428.67 47.448C428.11 46.776 427.35 46.44 426.39 46.44C425.318 46.44 424.494 46.816 423.918 47.568C423.358 48.304 423.078 49.32 423.078 50.616C423.078 51.896 423.35 52.912 423.894 53.664C424.454 54.4 425.262 54.768 426.318 54.768ZM446.429 42.504C445.949 42.504 445.549 42.376 445.229 42.12C444.925 41.848 444.773 41.488 444.773 41.04C444.773 40.576 444.925 40.216 445.229 39.96C445.549 39.704 445.949 39.576 446.429 39.576C446.925 39.576 447.325 39.704 447.629 39.96C447.949 40.216 448.109 40.576 448.109 41.04C448.109 41.488 447.949 41.848 447.629 42.12C447.325 42.376 446.925 42.504 446.429 42.504ZM439.949 57C438.765 57 437.965 56.744 437.549 56.232C437.133 55.72 436.925 55.008 436.925 54.096V46.656H434.573V44.232H436.925V40.632L439.925 40.32V44.232H447.917V57H444.917V46.656H439.925V53.544C439.925 53.944 440.005 54.216 440.165 54.36C440.341 54.488 440.613 54.552 440.981 54.552H442.613V57H439.949ZM456.763 57.216C455.499 57.216 454.387 56.952 453.427 56.424C452.483 55.896 451.747 55.136 451.219 54.144C450.691 53.152 450.427 51.976 450.427 50.616C450.427 49.304 450.675 48.152 451.171 47.16C451.683 46.168 452.411 45.392 453.355 44.832C454.299 44.272 455.435 43.992 456.763 43.992C458.011 43.992 459.107 44.264 460.051 44.808C460.995 45.336 461.731 46.096 462.259 47.088C462.787 48.064 463.051 49.24 463.051 50.616C463.051 51.928 462.795 53.08 462.283 54.072C461.787 55.064 461.067 55.84 460.123 56.4C459.195 56.944 458.075 57.216 456.763 57.216ZM456.739 54.744C457.731 54.744 458.523 54.4 459.115 53.712C459.723 53.008 460.027 51.976 460.027 50.616C460.027 49.256 459.731 48.224 459.139 47.52C458.547 46.816 457.755 46.464 456.763 46.464C455.771 46.464 454.971 46.816 454.363 47.52C453.755 48.224 453.451 49.256 453.451 50.616C453.451 51.96 453.747 52.984 454.339 53.688C454.931 54.392 455.731 54.744 456.739 54.744Z" fill="black"/>
<path d="M257.329 84.162C256.021 84.162 254.875 83.898 253.891 83.37C252.919 82.83 252.163 82.056 251.623 81.048C251.083 80.04 250.813 78.834 250.813 77.43C250.813 76.026 251.083 74.826 251.623 73.83C252.163 72.822 252.919 72.054 253.891 71.526C254.875 70.986 256.021 70.716 257.329 70.716C258.433 70.716 259.417 70.908 260.281 71.292C261.145 71.676 261.841 72.216 262.369 72.912C262.909 73.596 263.245 74.406 263.377 75.342H260.947C260.791 74.586 260.389 73.968 259.741 73.488C259.105 73.008 258.301 72.768 257.329 72.768C256.081 72.768 255.091 73.17 254.359 73.974C253.627 74.766 253.261 75.918 253.261 77.43C253.261 78.954 253.627 80.118 254.359 80.922C255.103 81.714 256.093 82.11 257.329 82.11C258.277 82.11 259.081 81.876 259.741 81.408C260.401 80.928 260.803 80.298 260.947 79.518H263.377C263.257 80.442 262.927 81.258 262.387 81.966C261.847 82.662 261.139 83.202 260.263 83.586C259.399 83.97 258.421 84.162 257.329 84.162ZM265.185 84V70.878H267.435V84H265.185ZM273.299 84.162C272.507 84.162 271.817 83.964 271.229 83.568C270.641 83.172 270.185 82.608 269.861 81.876C269.537 81.132 269.375 80.244 269.375 79.212C269.375 77.64 269.735 76.422 270.455 75.558C271.175 74.682 272.123 74.244 273.299 74.244C274.055 74.244 274.703 74.418 275.243 74.766C275.795 75.114 276.179 75.576 276.395 76.152H276.521L276.611 74.424H278.735V84H276.611L276.521 82.254H276.395C276.179 82.818 275.795 83.28 275.243 83.64C274.703 83.988 274.055 84.162 273.299 84.162ZM274.091 82.326C274.871 82.326 275.465 82.074 275.873 81.57C276.281 81.054 276.485 80.436 276.485 79.716V78.69C276.485 77.946 276.275 77.328 275.855 76.836C275.435 76.332 274.865 76.08 274.145 76.08C273.341 76.08 272.723 76.362 272.291 76.926C271.871 77.478 271.661 78.24 271.661 79.212C271.661 80.172 271.865 80.934 272.273 81.498C272.693 82.05 273.299 82.326 274.091 82.326ZM284.656 84.18C283.396 84.18 282.4 83.898 281.668 83.334C280.936 82.77 280.558 82.02 280.534 81.084H282.748C282.796 81.6 282.994 81.978 283.342 82.218C283.69 82.446 284.146 82.56 284.71 82.56C285.286 82.56 285.718 82.458 286.006 82.254C286.306 82.038 286.456 81.744 286.456 81.372C286.456 80.928 286.3 80.628 285.988 80.472C285.676 80.304 285.154 80.166 284.422 80.058C283.198 79.878 282.286 79.59 281.686 79.194C281.086 78.786 280.786 78.126 280.786 77.214C280.786 76.614 280.948 76.092 281.272 75.648C281.608 75.204 282.07 74.862 282.658 74.622C283.246 74.37 283.93 74.244 284.71 74.244C285.85 74.244 286.762 74.514 287.446 75.054C288.142 75.582 288.508 76.29 288.544 77.178H286.33C286.306 76.71 286.144 76.374 285.844 76.17C285.544 75.954 285.148 75.846 284.656 75.846C284.152 75.846 283.756 75.948 283.468 76.152C283.18 76.356 283.036 76.644 283.036 77.016C283.036 77.424 283.21 77.712 283.558 77.88C283.906 78.048 284.482 78.186 285.286 78.294C286.438 78.45 287.302 78.732 287.878 79.14C288.454 79.548 288.742 80.226 288.742 81.174C288.742 82.134 288.364 82.878 287.608 83.406C286.864 83.922 285.88 84.18 284.656 84.18ZM294.36 84.18C293.1 84.18 292.104 83.898 291.372 83.334C290.64 82.77 290.262 82.02 290.238 81.084H292.452C292.5 81.6 292.698 81.978 293.046 82.218C293.394 82.446 293.85 82.56 294.414 82.56C294.99 82.56 295.422 82.458 295.71 82.254C296.01 82.038 296.16 81.744 296.16 81.372C296.16 80.928 296.004 80.628 295.692 80.472C295.38 80.304 294.858 80.166 294.126 80.058C292.902 79.878 291.99 79.59 291.39 79.194C290.79 78.786 290.49 78.126 290.49 77.214C290.49 76.614 290.652 76.092 290.976 75.648C291.312 75.204 291.774 74.862 292.362 74.622C292.95 74.37 293.634 74.244 294.414 74.244C295.554 74.244 296.466 74.514 297.15 75.054C297.846 75.582 298.212 76.29 298.248 77.178H296.034C296.01 76.71 295.848 76.374 295.548 76.17C295.248 75.954 294.852 75.846 294.36 75.846C293.856 75.846 293.46 75.948 293.172 76.152C292.884 76.356 292.74 76.644 292.74 77.016C292.74 77.424 292.914 77.712 293.262 77.88C293.61 78.048 294.186 78.186 294.99 78.294C296.142 78.45 297.006 78.732 297.582 79.14C298.158 79.548 298.446 80.226 298.446 81.174C298.446 82.134 298.068 82.878 297.312 83.406C296.568 83.922 295.584 84.18 294.36 84.18ZM300.307 84V74.424H302.557V84H300.307ZM301.441 73.128C301.081 73.128 300.781 73.032 300.541 72.84C300.313 72.636 300.199 72.366 300.199 72.03C300.199 71.682 300.313 71.412 300.541 71.22C300.781 71.028 301.081 70.932 301.441 70.932C301.801 70.932 302.095 71.028 302.323 71.22C302.563 71.412 302.683 71.682 302.683 72.03C302.683 72.366 302.563 72.636 302.323 72.84C302.095 73.032 301.801 73.128 301.441 73.128ZM309.14 84.162C308.192 84.162 307.364 83.958 306.656 83.55C305.948 83.142 305.402 82.566 305.018 81.822C304.634 81.078 304.442 80.208 304.442 79.212C304.442 78.216 304.634 77.346 305.018 76.602C305.414 75.858 305.966 75.282 306.674 74.874C307.394 74.454 308.24 74.244 309.212 74.244C310.004 74.244 310.712 74.394 311.336 74.694C311.96 74.982 312.458 75.39 312.83 75.918C313.202 76.446 313.412 77.052 313.46 77.736H311.264C311.156 77.196 310.91 76.788 310.526 76.512C310.142 76.236 309.686 76.098 309.158 76.098C308.366 76.098 307.76 76.386 307.34 76.962C306.92 77.526 306.71 78.276 306.71 79.212C306.71 80.232 306.932 81.006 307.376 81.534C307.82 82.05 308.408 82.308 309.14 82.308C309.752 82.308 310.244 82.152 310.616 81.84C311 81.528 311.234 81.114 311.318 80.598H313.496C313.448 81.318 313.226 81.948 312.83 82.488C312.446 83.016 311.936 83.43 311.3 83.73C310.664 84.018 309.944 84.162 309.14 84.162ZM323.955 84.162C322.191 84.162 320.865 83.766 319.977 82.974C319.089 82.182 318.639 81.156 318.627 79.896H321.057C321.081 80.628 321.327 81.216 321.795 81.66C322.263 82.104 323.007 82.326 324.027 82.326C324.843 82.326 325.497 82.176 325.989 81.876C326.493 81.576 326.745 81.096 326.745 80.436C326.745 79.992 326.643 79.644 326.439 79.392C326.247 79.14 325.911 78.936 325.431 78.78C324.963 78.612 324.315 78.462 323.487 78.33C321.975 78.078 320.835 77.676 320.067 77.124C319.299 76.572 318.915 75.726 318.915 74.586C318.915 73.398 319.359 72.456 320.247 71.76C321.135 71.064 322.353 70.716 323.901 70.716C324.921 70.716 325.791 70.878 326.511 71.202C327.243 71.526 327.807 71.982 328.203 72.57C328.599 73.146 328.803 73.818 328.815 74.586H326.403C326.367 73.878 326.109 73.362 325.629 73.038C325.149 72.702 324.543 72.534 323.811 72.534C323.055 72.534 322.461 72.684 322.029 72.984C321.609 73.284 321.399 73.716 321.399 74.28C321.399 74.688 321.495 75.012 321.687 75.252C321.891 75.48 322.233 75.666 322.713 75.81C323.205 75.954 323.877 76.098 324.729 76.242C325.293 76.338 325.839 76.458 326.367 76.602C326.907 76.746 327.393 76.962 327.825 77.25C328.257 77.526 328.593 77.91 328.833 78.402C329.085 78.882 329.211 79.506 329.211 80.274C329.211 81.426 328.767 82.362 327.879 83.082C326.991 83.802 325.683 84.162 323.955 84.162ZM334.254 84C333.486 84 332.91 83.82 332.526 83.46C332.154 83.088 331.968 82.5 331.968 81.696V76.242H330.204V74.424H331.968V71.724L334.218 71.49V74.424H336.234V76.242H334.218V81.282C334.218 81.606 334.29 81.834 334.434 81.966C334.59 82.086 334.812 82.146 335.1 82.146H336.252V84H334.254ZM341.379 84.162C340.587 84.162 339.897 83.964 339.309 83.568C338.721 83.172 338.265 82.608 337.941 81.876C337.617 81.132 337.455 80.244 337.455 79.212C337.455 77.64 337.815 76.422 338.535 75.558C339.255 74.682 340.203 74.244 341.379 74.244C342.135 74.244 342.783 74.418 343.323 74.766C343.875 75.114 344.259 75.576 344.475 76.152H344.601L344.691 74.424H346.815V84H344.691L344.601 82.254H344.475C344.259 82.818 343.875 83.28 343.323 83.64C342.783 83.988 342.135 84.162 341.379 84.162ZM342.171 82.326C342.951 82.326 343.545 82.074 343.953 81.57C344.361 81.054 344.565 80.436 344.565 79.716V78.69C344.565 77.946 344.355 77.328 343.935 76.836C343.515 76.332 342.945 76.08 342.225 76.08C341.421 76.08 340.803 76.362 340.371 76.926C339.951 77.478 339.741 78.24 339.741 79.212C339.741 80.172 339.945 80.934 340.353 81.498C340.773 82.05 341.379 82.326 342.171 82.326ZM349.227 84V74.424H351.387L351.477 76.242H351.585C351.861 75.582 352.281 75.084 352.845 74.748C353.409 74.412 354.039 74.244 354.735 74.244C355.383 74.244 355.959 74.382 356.463 74.658C356.979 74.922 357.387 75.348 357.687 75.936C357.987 76.512 358.137 77.286 358.137 78.258V84H355.887V78.744C355.887 77.844 355.725 77.178 355.401 76.746C355.077 76.314 354.567 76.098 353.871 76.098C353.367 76.098 352.935 76.218 352.575 76.458C352.227 76.698 351.957 77.016 351.765 77.412C351.573 77.808 351.477 78.246 351.477 78.726V84H349.227ZM363.932 84.162C363.14 84.162 362.45 83.964 361.862 83.568C361.274 83.172 360.818 82.608 360.494 81.876C360.17 81.132 360.008 80.244 360.008 79.212C360.008 77.64 360.368 76.422 361.088 75.558C361.808 74.682 362.756 74.244 363.932 74.244C364.688 74.244 365.336 74.418 365.876 74.766C366.428 75.114 366.812 75.576 367.028 76.152H367.118V70.878H369.368V84H367.244L367.154 82.254H367.028C366.812 82.818 366.428 83.28 365.876 83.64C365.336 83.988 364.688 84.162 363.932 84.162ZM364.724 82.326C365.504 82.326 366.098 82.074 366.506 81.57C366.914 81.054 367.118 80.436 367.118 79.716V78.69C367.118 77.946 366.908 77.328 366.488 76.836C366.068 76.332 365.498 76.08 364.778 76.08C363.974 76.08 363.356 76.362 362.924 76.926C362.504 77.478 362.294 78.24 362.294 79.212C362.294 80.172 362.498 80.934 362.906 81.498C363.326 82.05 363.932 82.326 364.724 82.326ZM375.217 84.162C374.425 84.162 373.735 83.964 373.147 83.568C372.559 83.172 372.103 82.608 371.779 81.876C371.455 81.132 371.293 80.244 371.293 79.212C371.293 77.64 371.653 76.422 372.373 75.558C373.093 74.682 374.041 74.244 375.217 74.244C375.973 74.244 376.621 74.418 377.161 74.766C377.713 75.114 378.097 75.576 378.313 76.152H378.439L378.529 74.424H380.653V84H378.529L378.439 82.254H378.313C378.097 82.818 377.713 83.28 377.161 83.64C376.621 83.988 375.973 84.162 375.217 84.162ZM376.009 82.326C376.789 82.326 377.383 82.074 377.791 81.57C378.199 81.054 378.403 80.436 378.403 79.716V78.69C378.403 77.946 378.193 77.328 377.773 76.836C377.353 76.332 376.783 76.08 376.063 76.08C375.259 76.08 374.641 76.362 374.209 76.926C373.789 77.478 373.579 78.24 373.579 79.212C373.579 80.172 373.783 80.934 374.191 81.498C374.611 82.05 375.217 82.326 376.009 82.326ZM383.064 84V74.424H385.098L385.206 76.026H385.278C385.494 75.414 385.842 74.976 386.322 74.712C386.814 74.436 387.372 74.298 387.996 74.298C388.104 74.298 388.2 74.298 388.284 74.298C388.38 74.298 388.47 74.298 388.554 74.298V76.422C388.482 76.422 388.392 76.422 388.284 76.422C388.188 76.41 388.08 76.404 387.96 76.404C387.084 76.404 386.43 76.614 385.998 77.034C385.578 77.442 385.35 78.018 385.314 78.762V84H383.064ZM393.288 84.162C392.496 84.162 391.806 83.964 391.218 83.568C390.63 83.172 390.174 82.608 389.85 81.876C389.526 81.132 389.364 80.244 389.364 79.212C389.364 77.64 389.724 76.422 390.444 75.558C391.164 74.682 392.112 74.244 393.288 74.244C394.044 74.244 394.692 74.418 395.232 74.766C395.784 75.114 396.168 75.576 396.384 76.152H396.474V70.878H398.724V84H396.6L396.51 82.254H396.384C396.168 82.818 395.784 83.28 395.232 83.64C394.692 83.988 394.044 84.162 393.288 84.162ZM394.08 82.326C394.86 82.326 395.454 82.074 395.862 81.57C396.27 81.054 396.474 80.436 396.474 79.716V78.69C396.474 77.946 396.264 77.328 395.844 76.836C395.424 76.332 394.854 76.08 394.134 76.08C393.33 76.08 392.712 76.362 392.28 76.926C391.86 77.478 391.65 78.24 391.65 79.212C391.65 80.172 391.854 80.934 392.262 81.498C392.682 82.05 393.288 82.326 394.08 82.326ZM405.181 84V70.878H410.635C411.907 70.878 412.987 71.154 413.875 71.706C414.775 72.246 415.459 73.014 415.927 74.01C416.395 74.994 416.629 76.14 416.629 77.448C416.629 78.756 416.395 79.902 415.927 80.886C415.459 81.87 414.775 82.638 413.875 83.19C412.987 83.73 411.907 84 410.635 84H405.181ZM407.557 81.948H410.257C411.037 81.948 411.721 81.798 412.309 81.498C412.897 81.186 413.353 80.7 413.677 80.04C414.013 79.368 414.181 78.486 414.181 77.394C414.181 76.326 414.013 75.462 413.677 74.802C413.353 74.142 412.897 73.662 412.309 73.362C411.721 73.062 411.037 72.912 410.257 72.912H407.557V81.948ZM422.867 84.162C421.895 84.162 421.067 83.964 420.383 83.568C419.699 83.16 419.177 82.59 418.817 81.858C418.469 81.114 418.295 80.25 418.295 79.266C418.295 78.246 418.475 77.364 418.835 76.62C419.195 75.864 419.711 75.282 420.383 74.874C421.055 74.454 421.859 74.244 422.795 74.244C423.839 74.244 424.697 74.478 425.369 74.946C426.053 75.414 426.545 76.056 426.845 76.872C427.145 77.688 427.253 78.624 427.169 79.68H420.491C420.491 80.604 420.707 81.3 421.139 81.768C421.571 82.236 422.147 82.47 422.867 82.47C423.431 82.47 423.887 82.35 424.235 82.11C424.583 81.858 424.823 81.534 424.955 81.138H427.079C426.935 82.074 426.473 82.812 425.693 83.352C424.925 83.892 423.983 84.162 422.867 84.162ZM422.795 75.954C422.135 75.954 421.601 76.152 421.193 76.548C420.797 76.944 420.569 77.502 420.509 78.222H424.955C424.931 77.454 424.715 76.884 424.307 76.512C423.911 76.14 423.407 75.954 422.795 75.954ZM429.519 84V76.224H428.007V74.406H429.519V73.218C429.519 72.45 429.747 71.868 430.203 71.472C430.671 71.076 431.325 70.878 432.165 70.878H433.821V72.462H432.723C432.375 72.462 432.129 72.54 431.985 72.696C431.841 72.84 431.769 73.068 431.769 73.38V74.406H437.349V84H435.099V76.224H431.769V84H429.519ZM436.233 73.11C435.873 73.11 435.573 73.014 435.333 72.822C435.105 72.63 434.991 72.366 434.991 72.03C434.991 71.694 435.105 71.43 435.333 71.238C435.573 71.034 435.873 70.932 436.233 70.932C436.581 70.932 436.869 71.034 437.097 71.238C437.337 71.43 437.457 71.694 437.457 72.03C437.457 72.366 437.337 72.63 437.097 72.822C436.869 73.014 436.581 73.11 436.233 73.11ZM439.754 84V74.424H441.914L442.004 76.242H442.112C442.388 75.582 442.808 75.084 443.372 74.748C443.936 74.412 444.566 74.244 445.262 74.244C445.91 74.244 446.486 74.382 446.99 74.658C447.506 74.922 447.914 75.348 448.214 75.936C448.514 76.512 448.664 77.286 448.664 78.258V84H446.414V78.744C446.414 77.844 446.252 77.178 445.928 76.746C445.604 76.314 445.094 76.098 444.398 76.098C443.894 76.098 443.462 76.218 443.102 76.458C442.754 76.698 442.484 77.016 442.292 77.412C442.1 77.808 442.004 78.246 442.004 78.726V84H439.754ZM450.916 84V74.424H453.166V84H450.916ZM452.05 73.128C451.69 73.128 451.39 73.032 451.15 72.84C450.922 72.636 450.808 72.366 450.808 72.03C450.808 71.682 450.922 71.412 451.15 71.22C451.39 71.028 451.69 70.932 452.05 70.932C452.41 70.932 452.704 71.028 452.932 71.22C453.172 71.412 453.292 71.682 453.292 72.03C453.292 72.366 453.172 72.636 452.932 72.84C452.704 73.032 452.41 73.128 452.05 73.128ZM463.62 73.128C463.26 73.128 462.96 73.032 462.72 72.84C462.492 72.636 462.378 72.366 462.378 72.03C462.378 71.682 462.492 71.412 462.72 71.22C462.96 71.028 463.26 70.932 463.62 70.932C463.992 70.932 464.292 71.028 464.52 71.22C464.76 71.412 464.88 71.682 464.88 72.03C464.88 72.366 464.76 72.636 464.52 72.84C464.292 73.032 463.992 73.128 463.62 73.128ZM458.76 84C457.872 84 457.272 83.808 456.96 83.424C456.648 83.04 456.492 82.506 456.492 81.822V76.242H454.728V74.424H456.492V71.724L458.742 71.49V74.424H464.736V84H462.486V76.242H458.742V81.408C458.742 81.708 458.802 81.912 458.922 82.02C459.054 82.116 459.258 82.164 459.534 82.164H460.758V84H458.76ZM471.37 84.162C470.422 84.162 469.588 83.964 468.868 83.568C468.16 83.172 467.608 82.602 467.212 81.858C466.816 81.114 466.618 80.232 466.618 79.212C466.618 78.228 466.804 77.364 467.176 76.62C467.56 75.876 468.106 75.294 468.814 74.874C469.522 74.454 470.374 74.244 471.37 74.244C472.306 74.244 473.128 74.448 473.836 74.856C474.544 75.252 475.096 75.822 475.492 76.566C475.888 77.298 476.086 78.18 476.086 79.212C476.086 80.196 475.894 81.06 475.51 81.804C475.138 82.548 474.598 83.13 473.89 83.55C473.194 83.958 472.354 84.162 471.37 84.162ZM471.352 82.308C472.096 82.308 472.69 82.05 473.134 81.534C473.59 81.006 473.818 80.232 473.818 79.212C473.818 78.192 473.596 77.418 473.152 76.89C472.708 76.362 472.114 76.098 471.37 76.098C470.626 76.098 470.026 76.362 469.57 76.89C469.114 77.418 468.886 78.192 468.886 79.212C468.886 80.22 469.108 80.988 469.552 81.516C469.996 82.044 470.596 82.308 471.352 82.308ZM477.951 84V74.424H480.111L480.201 76.242H480.309C480.585 75.582 481.005 75.084 481.569 74.748C482.133 74.412 482.763 74.244 483.459 74.244C484.107 74.244 484.683 74.382 485.187 74.658C485.703 74.922 486.111 75.348 486.411 75.936C486.711 76.512 486.861 77.286 486.861 78.258V84H484.611V78.744C484.611 77.844 484.449 77.178 484.125 76.746C483.801 76.314 483.291 76.098 482.595 76.098C482.091 76.098 481.659 76.218 481.299 76.458C480.951 76.698 480.681 77.016 480.489 77.412C480.297 77.808 480.201 78.246 480.201 78.726V84H477.951Z" fill="black"/>
<rect x="129" y="129" width="480" height="360" rx="8" fill="#28A745" stroke="#1E7E34" stroke-width="2"/>
<path d="M609.707 516.707C610.098 516.317 610.098 515.683 609.707 515.293L603.343 508.929C602.953 508.538 602.319 508.538 601.929 508.929C601.538 509.319 601.538 509.953 601.929 510.343L607.586 516L601.929 521.657C601.538 522.047 601.538 522.681 601.929 523.071C602.319 523.462 602.953 523.462 603.343 523.071L609.707 516.707ZM129 516V517H609V516V515H129V516Z" fill="black"/>
<path d="M351.509 515V504.94H347.949V503.04H348.529C349.489 503.04 350.229 502.813 350.749 502.36C351.269 501.907 351.562 501.313 351.629 500.58H354.009V515H351.509ZM361.656 515.2C359.949 515.2 358.643 514.553 357.736 513.26C356.829 511.967 356.376 510.153 356.376 507.82C356.376 506.14 356.596 504.753 357.036 503.66C357.476 502.567 358.089 501.753 358.876 501.22C359.676 500.687 360.603 500.42 361.656 500.42C363.376 500.42 364.683 501.067 365.576 502.36C366.483 503.653 366.936 505.473 366.936 507.82C366.936 509.487 366.716 510.867 366.276 511.96C365.836 513.053 365.216 513.867 364.416 514.4C363.629 514.933 362.709 515.2 361.656 515.2ZM361.656 513.08C362.549 513.08 363.229 512.68 363.696 511.88C364.163 511.067 364.396 509.713 364.396 507.82C364.396 505.913 364.163 504.553 363.696 503.74C363.229 502.927 362.549 502.52 361.656 502.52C360.776 502.52 360.096 502.927 359.616 503.74C359.149 504.553 358.916 505.913 358.916 507.82C358.916 509.713 359.149 511.067 359.616 511.88C360.096 512.68 360.776 513.08 361.656 513.08ZM368.62 515V514.42C368.62 513.527 368.793 512.747 369.14 512.08C369.487 511.4 369.933 510.8 370.48 510.28C371.027 509.747 371.607 509.26 372.22 508.82C372.833 508.38 373.413 507.953 373.96 507.54C374.507 507.113 374.953 506.673 375.3 506.22C375.647 505.767 375.82 505.26 375.82 504.7C375.82 504.02 375.613 503.493 375.2 503.12C374.787 502.747 374.233 502.56 373.54 502.56C372.74 502.56 372.12 502.793 371.68 503.26C371.24 503.727 371.027 504.32 371.04 505.04H368.56C368.587 504.107 368.813 503.293 369.24 502.6C369.667 501.907 370.253 501.373 371 501C371.76 500.613 372.647 500.42 373.66 500.42C374.62 500.42 375.447 500.6 376.14 500.96C376.847 501.307 377.387 501.793 377.76 502.42C378.147 503.047 378.34 503.773 378.34 504.6C378.34 505.307 378.187 505.94 377.88 506.5C377.587 507.06 377.2 507.567 376.72 508.02C376.24 508.473 375.72 508.9 375.16 509.3C374.6 509.687 374.053 510.067 373.52 510.44C373 510.8 372.547 511.173 372.16 511.56C371.773 511.947 371.513 512.367 371.38 512.82H378.36V515H368.62ZM386.077 515V511.58H379.317V509.68L385.577 500.58H388.577V509.52H391.037V511.58H388.577V515H386.077ZM381.817 509.52H386.077V503.36L381.817 509.52Z" fill="black"/>
<path d="M96 321.686C94.12 321.686 92.4467 321.486 90.98 321.086C89.5133 320.686 88.1933 320.173 87.02 319.546C85.8467 318.919 84.76 318.259 83.76 317.566V322.866H86.42V324.886H81.58V314.586H83.38C84.26 315.199 85.14 315.773 86.02 316.306C86.8867 316.839 87.8133 317.313 88.8 317.726C89.7733 318.126 90.8467 318.439 92.02 318.666C93.1933 318.893 94.52 319.006 96 319.006V321.686ZM96.18 307.996C96.18 309.73 95.62 311.07 94.5 312.016C93.3667 312.95 91.6533 313.416 89.36 313.416C86.6533 313.416 84.6467 312.936 83.34 311.976C82.0333 311.003 81.38 309.59 81.38 307.736C81.38 306.31 81.74 305.156 82.46 304.276C83.1667 303.383 84.1067 302.87 85.28 302.736V305.236C84.6933 305.343 84.26 305.63 83.98 306.096C83.6867 306.563 83.54 307.116 83.54 307.756C83.54 308.556 83.7533 309.19 84.18 309.656C84.5933 310.123 85.1933 310.456 85.98 310.656C86.7533 310.856 87.68 310.963 88.76 310.976V310.856C88.1733 310.616 87.6933 310.183 87.32 309.556C86.9467 308.93 86.76 308.163 86.76 307.256C86.76 306.35 86.9533 305.556 87.34 304.876C87.7133 304.196 88.24 303.67 88.92 303.296C89.5867 302.91 90.3733 302.716 91.28 302.716C92.2667 302.716 93.1267 302.943 93.86 303.396C94.5933 303.836 95.1667 304.456 95.58 305.256C95.98 306.043 96.18 306.956 96.18 307.996ZM94 307.916C94 307.116 93.7533 306.47 93.26 305.976C92.7667 305.483 92.1133 305.236 91.3 305.236C90.5 305.236 89.86 305.483 89.38 305.976C88.9 306.47 88.66 307.11 88.66 307.896C88.66 308.736 88.92 309.403 89.44 309.896C89.9467 310.376 90.5867 310.616 91.36 310.616C92.1733 310.616 92.82 310.37 93.3 309.876C93.7667 309.383 94 308.73 94 307.916ZM96.2 295.425C96.2 296.519 96.0333 297.465 95.7 298.265C95.3533 299.052 94.8733 299.659 94.26 300.085C93.6467 300.499 92.94 300.705 92.14 300.705C91.26 300.705 90.5 300.439 89.86 299.905C89.22 299.372 88.8 298.659 88.6 297.765H88.48C88.28 298.485 87.8867 299.072 87.3 299.525C86.7133 299.979 86.0333 300.205 85.26 300.205C84.06 300.205 83.12 299.772 82.44 298.905C81.76 298.025 81.42 296.865 81.42 295.425C81.42 293.932 81.7733 292.765 82.48 291.925C83.1733 291.072 84.1 290.645 85.26 290.645C86.0333 290.645 86.7133 290.872 87.3 291.325C87.8867 291.779 88.28 292.365 88.48 293.085H88.6C88.8 292.192 89.22 291.479 89.86 290.945C90.5 290.412 91.26 290.145 92.14 290.145C92.98 290.145 93.7067 290.365 94.32 290.805C94.92 291.245 95.3867 291.865 95.72 292.665C96.04 293.452 96.2 294.372 96.2 295.425ZM87.62 295.425C87.62 294.585 87.42 293.979 87.02 293.605C86.6067 293.232 86.1133 293.045 85.54 293.045C84.9933 293.045 84.5133 293.232 84.1 293.605C83.6867 293.965 83.48 294.572 83.48 295.425C83.48 296.279 83.6867 296.892 84.1 297.265C84.5133 297.625 84.9933 297.805 85.54 297.805C86.1133 297.805 86.6067 297.619 87.02 297.245C87.42 296.872 87.62 296.265 87.62 295.425ZM94.06 295.425C94.06 294.599 93.86 293.939 93.46 293.445C93.0467 292.952 92.4867 292.705 91.78 292.705C91.1533 292.705 90.62 292.919 90.18 293.345C89.74 293.772 89.52 294.465 89.52 295.425C89.52 296.385 89.74 297.079 90.18 297.505C90.62 297.932 91.1533 298.145 91.78 298.145C92.4867 298.145 93.0467 297.899 93.46 297.405C93.86 296.912 94.06 296.252 94.06 295.425Z" fill="black"/>
<path d="M97.7071 128.293C97.3166 127.902 96.6834 127.902 96.2929 128.293L89.9289 134.657C89.5384 135.047 89.5384 135.681 89.9289 136.071C90.3195 136.462 90.9526 136.462 91.3431 136.071L97 130.414L102.657 136.071C103.047 136.462 103.681 136.462 104.071 136.071C104.462 135.681 104.462 135.047 104.071 134.657L97.7071 128.293ZM97 489H98V129H97H96V489H97Z" fill="black"/>
</svg>
