<svg width="842" height="474" viewBox="0 0 842 474" fill="none" xmlns="http://www.w3.org/2000/svg">
<rect width="842" height="474" rx="24" fill="white"/>
<path d="M329.606 45.456C331.686 45.456 333.286 46.136 334.406 47.496C335.526 48.84 336.086 50.888 336.086 53.64C336.086 56.888 335.502 59.296 334.334 60.864C333.182 62.432 331.494 63.216 329.27 63.216C327.574 63.216 326.19 62.792 325.118 61.944C324.046 61.08 323.43 59.944 323.27 58.536H326.27C326.414 59.24 326.766 59.768 327.326 60.12C327.886 60.456 328.542 60.624 329.294 60.624C330.27 60.624 331.038 60.376 331.598 59.88C332.158 59.368 332.55 58.648 332.774 57.72C333.014 56.776 333.142 55.656 333.158 54.36H333.014C332.726 55.064 332.206 55.64 331.454 56.088C330.718 56.536 329.798 56.76 328.694 56.76C327.622 56.76 326.67 56.536 325.838 56.088C325.022 55.624 324.382 54.992 323.918 54.192C323.47 53.376 323.246 52.424 323.246 51.336C323.246 50.152 323.51 49.12 324.038 48.24C324.582 47.36 325.326 46.68 326.27 46.2C327.23 45.704 328.342 45.456 329.606 45.456ZM329.486 48.072C328.542 48.072 327.774 48.368 327.182 48.96C326.59 49.552 326.294 50.336 326.294 51.312C326.294 52.272 326.582 53.04 327.158 53.616C327.75 54.192 328.518 54.48 329.462 54.48C330.47 54.48 331.27 54.176 331.862 53.568C332.454 52.944 332.75 52.168 332.75 51.24C332.75 50.264 332.446 49.496 331.838 48.936C331.246 48.36 330.462 48.072 329.486 48.072ZM339.945 63.192C339.465 63.192 339.073 63.056 338.769 62.784C338.481 62.496 338.337 62.128 338.337 61.68C338.337 61.232 338.481 60.872 338.769 60.6C339.073 60.312 339.465 60.168 339.945 60.168C340.409 60.168 340.785 60.312 341.073 60.6C341.377 60.872 341.529 61.232 341.529 61.68C341.529 62.128 341.377 62.496 341.073 62.784C340.785 63.056 340.409 63.192 339.945 63.192ZM339.945 53.064C339.465 53.064 339.073 52.928 338.769 52.656C338.481 52.368 338.337 52 338.337 51.552C338.337 51.104 338.481 50.744 338.769 50.472C339.073 50.184 339.465 50.04 339.945 50.04C340.409 50.04 340.785 50.184 341.073 50.472C341.377 50.744 341.529 51.104 341.529 51.552C341.529 52 341.377 52.368 341.073 52.656C340.785 52.928 340.409 53.064 339.945 53.064ZM347.219 63V50.928H342.947V48.648H343.643C344.795 48.648 345.683 48.376 346.307 47.832C346.931 47.288 347.283 46.576 347.363 45.696H350.219V63H347.219ZM359.588 63.216C357.508 63.216 355.9 62.544 354.764 61.2C353.644 59.84 353.084 57.784 353.084 55.032C353.084 51.784 353.66 49.376 354.812 47.808C355.98 46.24 357.676 45.456 359.9 45.456C361.612 45.456 362.996 45.888 364.052 46.752C365.124 47.6 365.74 48.728 365.9 50.136H362.9C362.772 49.432 362.428 48.912 361.868 48.576C361.308 48.224 360.644 48.048 359.876 48.048C358.916 48.048 358.156 48.304 357.596 48.816C357.036 49.312 356.636 50.032 356.396 50.976C356.156 51.904 356.028 53.016 356.012 54.312H356.156C356.444 53.608 356.964 53.032 357.716 52.584C358.468 52.136 359.388 51.912 360.476 51.912C361.564 51.912 362.516 52.144 363.332 52.608C364.148 53.056 364.78 53.688 365.228 54.504C365.692 55.304 365.924 56.248 365.924 57.336C365.924 58.52 365.652 59.552 365.108 60.432C364.58 61.312 363.836 62 362.876 62.496C361.932 62.976 360.836 63.216 359.588 63.216ZM359.684 60.6C360.644 60.6 361.42 60.304 362.012 59.712C362.604 59.12 362.9 58.336 362.9 57.36C362.9 56.4 362.604 55.632 362.012 55.056C361.42 54.48 360.652 54.192 359.708 54.192C358.7 54.192 357.9 54.504 357.308 55.128C356.732 55.736 356.444 56.504 356.444 57.432C356.444 58.408 356.74 59.184 357.332 59.76C357.924 60.32 358.708 60.6 359.684 60.6ZM372.64 63L378.64 45.504H383.152L389.152 63H385.84L384.616 59.16H377.2L375.952 63H372.64ZM380.128 50.16L378.016 56.688H383.8L381.664 50.16L380.992 47.928H380.824L380.128 50.16ZM395.909 63.24C394.229 63.24 392.901 62.864 391.925 62.112C390.949 61.36 390.445 60.36 390.413 59.112H393.365C393.429 59.8 393.693 60.304 394.157 60.624C394.621 60.928 395.229 61.08 395.981 61.08C396.749 61.08 397.325 60.944 397.709 60.672C398.109 60.384 398.309 59.992 398.309 59.496C398.309 58.904 398.101 58.504 397.685 58.296C397.269 58.072 396.573 57.888 395.597 57.744C393.965 57.504 392.749 57.12 391.949 56.592C391.149 56.048 390.749 55.168 390.749 53.952C390.749 53.152 390.965 52.456 391.397 51.864C391.845 51.272 392.461 50.816 393.245 50.496C394.029 50.16 394.941 49.992 395.981 49.992C397.501 49.992 398.717 50.352 399.629 51.072C400.557 51.776 401.045 52.72 401.093 53.904H398.141C398.109 53.28 397.893 52.832 397.493 52.56C397.093 52.272 396.565 52.128 395.909 52.128C395.237 52.128 394.709 52.264 394.325 52.536C393.941 52.808 393.749 53.192 393.749 53.688C393.749 54.232 393.981 54.616 394.445 54.84C394.909 55.064 395.677 55.248 396.749 55.392C398.285 55.6 399.437 55.976 400.205 56.52C400.973 57.064 401.357 57.968 401.357 59.232C401.357 60.512 400.853 61.504 399.845 62.208C398.853 62.896 397.541 63.24 395.909 63.24ZM403.838 67.008V50.232H406.694L406.814 52.56H406.982C407.254 51.792 407.758 51.176 408.494 50.712C409.23 50.232 410.102 49.992 411.11 49.992C412.15 49.992 413.062 50.256 413.846 50.784C414.63 51.312 415.238 52.072 415.67 53.064C416.118 54.04 416.342 55.224 416.342 56.616C416.342 58.696 415.862 60.32 414.902 61.488C413.942 62.656 412.678 63.24 411.11 63.24C410.102 63.24 409.23 63.008 408.494 62.544C407.758 62.064 407.254 61.448 406.982 60.696H406.838V67.008H403.838ZM409.982 60.792C411.054 60.792 411.87 60.424 412.43 59.688C412.99 58.936 413.27 57.912 413.27 56.616C413.27 55.336 412.998 54.32 412.454 53.568C411.91 52.816 411.11 52.44 410.054 52.44C408.998 52.44 408.198 52.784 407.654 53.472C407.11 54.16 406.838 54.984 406.838 55.944V57.312C406.838 58.288 407.118 59.112 407.678 59.784C408.238 60.456 409.006 60.792 409.982 60.792ZM424.611 63.216C423.315 63.216 422.211 62.952 421.299 62.424C420.387 61.88 419.691 61.12 419.211 60.144C418.747 59.152 418.515 58 418.515 56.688C418.515 55.328 418.755 54.152 419.235 53.16C419.715 52.152 420.403 51.376 421.299 50.832C422.195 50.272 423.267 49.992 424.515 49.992C425.907 49.992 427.051 50.304 427.947 50.928C428.859 51.552 429.515 52.408 429.915 53.496C430.315 54.584 430.459 55.832 430.347 57.24H421.443C421.443 58.472 421.731 59.4 422.307 60.024C422.883 60.648 423.651 60.96 424.611 60.96C425.363 60.96 425.971 60.8 426.435 60.48C426.899 60.144 427.219 59.712 427.395 59.184H430.227C430.035 60.432 429.419 61.416 428.379 62.136C427.355 62.856 426.099 63.216 424.611 63.216ZM424.515 52.272C423.635 52.272 422.923 52.536 422.379 53.064C421.851 53.592 421.547 54.336 421.467 55.296H427.395C427.363 54.272 427.075 53.512 426.531 53.016C426.003 52.52 425.331 52.272 424.515 52.272ZM438.515 63.216C437.251 63.216 436.147 62.944 435.203 62.4C434.259 61.856 433.531 61.088 433.019 60.096C432.507 59.104 432.251 57.944 432.251 56.616C432.251 55.288 432.507 54.128 433.019 53.136C433.547 52.144 434.283 51.376 435.227 50.832C436.187 50.272 437.315 49.992 438.611 49.992C439.667 49.992 440.611 50.192 441.443 50.592C442.275 50.976 442.939 51.52 443.435 52.224C443.931 52.928 444.211 53.736 444.275 54.648H441.347C441.203 53.928 440.875 53.384 440.363 53.016C439.851 52.648 439.243 52.464 438.539 52.464C437.483 52.464 436.675 52.848 436.115 53.616C435.555 54.368 435.275 55.368 435.275 56.616C435.275 57.976 435.571 59.008 436.163 59.712C436.755 60.4 437.539 60.744 438.515 60.744C439.331 60.744 439.987 60.536 440.483 60.12C440.995 59.704 441.307 59.152 441.419 58.464H444.323C444.259 59.424 443.963 60.264 443.435 60.984C442.923 61.688 442.243 62.24 441.395 62.64C440.547 63.024 439.587 63.216 438.515 63.216ZM450.93 63C449.906 63 449.138 62.76 448.626 62.28C448.13 61.784 447.882 61 447.882 59.928V52.656H445.53V50.232H447.882V46.632L450.882 46.32V50.232H453.57V52.656H450.882V59.376C450.882 59.808 450.978 60.112 451.17 60.288C451.378 60.448 451.674 60.528 452.058 60.528H453.594V63H450.93ZM461.405 63V45.504H470.021C471.781 45.504 473.165 45.904 474.173 46.704C475.197 47.504 475.709 48.688 475.709 50.256C475.709 51.344 475.421 52.264 474.845 53.016C474.285 53.752 473.501 54.256 472.493 54.528V54.672C473.501 54.848 474.229 55.224 474.677 55.8C475.125 56.36 475.349 57.128 475.349 58.104V61.056C475.349 61.36 475.357 61.68 475.373 62.016C475.405 62.336 475.493 62.664 475.637 63H472.421C472.325 62.776 472.253 62.496 472.205 62.16C472.173 61.824 472.157 61.448 472.157 61.032V58.656C472.157 57.856 471.957 57.24 471.557 56.808C471.173 56.376 470.405 56.16 469.253 56.16H464.573V63H461.405ZM469.301 48.144H464.573V53.64H469.301C470.421 53.64 471.221 53.376 471.701 52.848C472.197 52.304 472.445 51.632 472.445 50.832C472.445 49.872 472.149 49.184 471.557 48.768C470.981 48.352 470.229 48.144 469.301 48.144ZM483.094 63.216C482.038 63.216 481.118 62.952 480.334 62.424C479.55 61.896 478.942 61.144 478.51 60.168C478.078 59.176 477.862 57.992 477.862 56.616C477.862 54.52 478.342 52.896 479.302 51.744C480.262 50.576 481.526 49.992 483.094 49.992C484.102 49.992 484.966 50.224 485.686 50.688C486.422 51.152 486.934 51.768 487.222 52.536H487.39L487.51 50.232H490.342V63H487.51L487.39 60.672H487.222C486.934 61.424 486.422 62.04 485.686 62.52C484.966 62.984 484.102 63.216 483.094 63.216ZM484.15 60.768C485.19 60.768 485.982 60.432 486.526 59.76C487.07 59.072 487.342 58.248 487.342 57.288V55.92C487.342 54.928 487.062 54.104 486.502 53.448C485.942 52.776 485.182 52.44 484.222 52.44C483.15 52.44 482.326 52.816 481.75 53.568C481.19 54.304 480.91 55.32 480.91 56.616C480.91 57.896 481.182 58.912 481.726 59.664C482.286 60.4 483.094 60.768 484.15 60.768ZM504.261 48.504C503.781 48.504 503.381 48.376 503.061 48.12C502.757 47.848 502.605 47.488 502.605 47.04C502.605 46.576 502.757 46.216 503.061 45.96C503.381 45.704 503.781 45.576 504.261 45.576C504.757 45.576 505.157 45.704 505.461 45.96C505.781 46.216 505.941 46.576 505.941 47.04C505.941 47.488 505.781 47.848 505.461 48.12C505.157 48.376 504.757 48.504 504.261 48.504ZM497.781 63C496.597 63 495.797 62.744 495.381 62.232C494.965 61.72 494.757 61.008 494.757 60.096V52.656H492.405V50.232H494.757V46.632L497.757 46.32V50.232H505.749V63H502.749V52.656H497.757V59.544C497.757 59.944 497.837 60.216 497.997 60.36C498.173 60.488 498.445 60.552 498.813 60.552H500.445V63H497.781ZM514.595 63.216C513.331 63.216 512.219 62.952 511.259 62.424C510.315 61.896 509.579 61.136 509.051 60.144C508.523 59.152 508.259 57.976 508.259 56.616C508.259 55.304 508.507 54.152 509.003 53.16C509.515 52.168 510.243 51.392 511.187 50.832C512.131 50.272 513.267 49.992 514.595 49.992C515.843 49.992 516.939 50.264 517.883 50.808C518.827 51.336 519.563 52.096 520.091 53.088C520.619 54.064 520.883 55.24 520.883 56.616C520.883 57.928 520.627 59.08 520.115 60.072C519.619 61.064 518.899 61.84 517.955 62.4C517.027 62.944 515.907 63.216 514.595 63.216ZM514.571 60.744C515.563 60.744 516.355 60.4 516.947 59.712C517.555 59.008 517.859 57.976 517.859 56.616C517.859 55.256 517.563 54.224 516.971 53.52C516.379 52.816 515.587 52.464 514.595 52.464C513.603 52.464 512.803 52.816 512.195 53.52C511.587 54.224 511.283 55.256 511.283 56.616C511.283 57.96 511.579 58.984 512.171 59.688C512.763 60.392 513.563 60.744 514.571 60.744Z" fill="black"/>
<path d="M301.358 89.5837V76.4617H305.138L307.28 82.9597L308.144 86.3077H308.27L309.152 82.9597L311.276 76.4617H315.038V89.5837H312.734V83.2297L312.806 78.6757H312.662L311.384 82.9057L309.224 89.5837H307.19L305.048 82.9057L303.752 78.6757H303.626L303.68 83.2297V89.5837H301.358ZM321.792 89.7457C320.844 89.7457 320.01 89.5477 319.29 89.1517C318.582 88.7557 318.03 88.1857 317.634 87.4417C317.238 86.6977 317.04 85.8157 317.04 84.7957C317.04 83.8117 317.226 82.9477 317.598 82.2037C317.982 81.4597 318.528 80.8777 319.236 80.4577C319.944 80.0377 320.796 79.8277 321.792 79.8277C322.728 79.8277 323.55 80.0317 324.258 80.4397C324.966 80.8357 325.518 81.4057 325.914 82.1497C326.31 82.8817 326.508 83.7637 326.508 84.7957C326.508 85.7797 326.316 86.6437 325.932 87.3877C325.56 88.1317 325.02 88.7137 324.312 89.1337C323.616 89.5417 322.776 89.7457 321.792 89.7457ZM321.774 87.8917C322.518 87.8917 323.112 87.6337 323.556 87.1177C324.012 86.5897 324.24 85.8157 324.24 84.7957C324.24 83.7757 324.018 83.0017 323.574 82.4737C323.13 81.9457 322.536 81.6817 321.792 81.6817C321.048 81.6817 320.448 81.9457 319.992 82.4737C319.536 83.0017 319.308 83.7757 319.308 84.7957C319.308 85.8037 319.53 86.5717 319.974 87.0997C320.418 87.6277 321.018 87.8917 321.774 87.8917ZM333.827 89.7637C333.071 89.7637 332.417 89.5897 331.865 89.2417C331.313 88.8817 330.935 88.4197 330.731 87.8557H330.605L330.515 89.5837H328.373V76.4617H330.623V81.7537H330.731C330.935 81.1777 331.313 80.7157 331.865 80.3677C332.417 80.0077 333.071 79.8277 333.827 79.8277C334.607 79.8277 335.291 80.0257 335.879 80.4217C336.467 80.8177 336.923 81.3877 337.247 82.1317C337.583 82.8637 337.751 83.7517 337.751 84.7957C337.751 86.3557 337.391 87.5737 336.671 88.4497C335.951 89.3257 335.003 89.7637 333.827 89.7637ZM332.981 87.9277C333.785 87.9277 334.397 87.6517 334.817 87.0997C335.237 86.5357 335.447 85.7677 335.447 84.7957C335.447 83.8357 335.243 83.0737 334.835 82.5097C334.427 81.9457 333.827 81.6637 333.035 81.6637C332.243 81.6637 331.643 81.9217 331.235 82.4377C330.827 82.9537 330.623 83.5717 330.623 84.2917V85.3177C330.623 86.0497 330.833 86.6677 331.253 87.1717C331.673 87.6757 332.249 87.9277 332.981 87.9277ZM339.658 89.5837V80.0077H341.908V89.5837H339.658ZM340.792 78.7117C340.432 78.7117 340.132 78.6157 339.892 78.4237C339.664 78.2197 339.55 77.9497 339.55 77.6137C339.55 77.2657 339.664 76.9957 339.892 76.8037C340.132 76.6117 340.432 76.5157 340.792 76.5157C341.152 76.5157 341.446 76.6117 341.674 76.8037C341.914 76.9957 342.034 77.2657 342.034 77.6137C342.034 77.9497 341.914 78.2197 341.674 78.4237C341.446 78.6157 341.152 78.7117 340.792 78.7117ZM344.334 89.5837V76.4617H346.584V89.5837H344.334ZM352.988 89.7457C352.016 89.7457 351.188 89.5477 350.504 89.1517C349.82 88.7437 349.298 88.1737 348.938 87.4417C348.59 86.6977 348.416 85.8337 348.416 84.8497C348.416 83.8297 348.596 82.9477 348.956 82.2037C349.316 81.4477 349.832 80.8657 350.504 80.4577C351.176 80.0377 351.98 79.8277 352.916 79.8277C353.96 79.8277 354.818 80.0617 355.49 80.5297C356.174 80.9977 356.666 81.6397 356.966 82.4557C357.266 83.2717 357.374 84.2077 357.29 85.2637H350.612C350.612 86.1877 350.828 86.8837 351.26 87.3517C351.692 87.8197 352.268 88.0537 352.988 88.0537C353.552 88.0537 354.008 87.9337 354.356 87.6937C354.704 87.4417 354.944 87.1177 355.076 86.7217H357.2C357.056 87.6577 356.594 88.3957 355.814 88.9357C355.046 89.4757 354.104 89.7457 352.988 89.7457ZM352.916 81.5377C352.256 81.5377 351.722 81.7357 351.314 82.1317C350.918 82.5277 350.69 83.0857 350.63 83.8057H355.076C355.052 83.0377 354.836 82.4677 354.428 82.0957C354.032 81.7237 353.528 81.5377 352.916 81.5377ZM366.223 89.7637C365.527 89.7637 364.903 89.6257 364.351 89.3497C363.799 89.0617 363.367 88.6597 363.055 88.1437C362.743 87.6277 362.587 87.0217 362.587 86.3257C362.587 85.4977 362.851 84.7657 363.379 84.1297C363.919 83.4817 364.615 82.9717 365.467 82.5997C364.963 81.9517 364.627 81.3937 364.459 80.9257C364.303 80.4457 364.225 79.9957 364.225 79.5757C364.225 78.9157 364.381 78.3397 364.693 77.8477C365.017 77.3437 365.455 76.9597 366.007 76.6957C366.571 76.4197 367.213 76.2817 367.933 76.2817C368.569 76.2817 369.133 76.4077 369.625 76.6597C370.129 76.9117 370.519 77.2597 370.795 77.7037C371.083 78.1477 371.227 78.6697 371.227 79.2697C371.227 80.0257 370.975 80.7037 370.471 81.3037C369.979 81.9037 369.277 82.4137 368.365 82.8337L370.507 85.1197C370.687 84.7837 370.825 84.4657 370.921 84.1657C371.029 83.8657 371.107 83.5777 371.155 83.3017L371.173 82.7437H374.215L374.413 84.5257L372.721 84.4897C372.625 84.7897 372.493 85.1197 372.325 85.4797C372.169 85.8397 371.989 86.1817 371.785 86.5057C372.289 87.0217 372.745 87.3697 373.153 87.5497C373.561 87.7297 373.969 87.8197 374.377 87.8197C374.617 87.8197 374.839 87.7837 375.043 87.7117L374.971 89.6017C374.647 89.6737 374.311 89.7097 373.963 89.7097C373.291 89.7097 372.667 89.5597 372.091 89.2597C371.515 88.9477 370.963 88.5277 370.435 87.9997C369.955 88.5757 369.349 89.0137 368.617 89.3137C367.897 89.6137 367.099 89.7637 366.223 89.7637ZM366.385 79.5217C366.385 79.8577 366.445 80.1877 366.565 80.5117C366.697 80.8237 366.985 81.2437 367.429 81.7717C368.641 81.1477 369.247 80.3917 369.247 79.5037C369.247 79.0597 369.121 78.7177 368.869 78.4777C368.629 78.2257 368.299 78.0997 367.879 78.0997C367.447 78.0997 367.087 78.2317 366.799 78.4957C366.523 78.7597 366.385 79.1017 366.385 79.5217ZM364.837 86.0737C364.837 86.6377 365.011 87.0877 365.359 87.4237C365.719 87.7597 366.181 87.9277 366.745 87.9277C367.297 87.9277 367.783 87.8257 368.203 87.6217C368.623 87.4057 368.977 87.1177 369.265 86.7577L366.565 83.8417C365.413 84.3817 364.837 85.1257 364.837 86.0737ZM385.648 89.7457C383.884 89.7457 382.558 89.3497 381.67 88.5577C380.782 87.7657 380.332 86.7397 380.32 85.4797H382.75C382.774 86.2117 383.02 86.7997 383.488 87.2437C383.956 87.6877 384.7 87.9097 385.72 87.9097C386.536 87.9097 387.19 87.7597 387.682 87.4597C388.186 87.1597 388.438 86.6797 388.438 86.0197C388.438 85.5757 388.336 85.2277 388.132 84.9757C387.94 84.7237 387.604 84.5197 387.124 84.3637C386.656 84.1957 386.008 84.0457 385.18 83.9137C383.668 83.6617 382.528 83.2597 381.76 82.7077C380.992 82.1557 380.608 81.3097 380.608 80.1697C380.608 78.9817 381.052 78.0397 381.94 77.3437C382.828 76.6477 384.046 76.2997 385.594 76.2997C386.614 76.2997 387.484 76.4617 388.204 76.7857C388.936 77.1097 389.5 77.5657 389.896 78.1537C390.292 78.7297 390.496 79.4017 390.508 80.1697H388.096C388.06 79.4617 387.802 78.9457 387.322 78.6217C386.842 78.2857 386.236 78.1177 385.504 78.1177C384.748 78.1177 384.154 78.2677 383.722 78.5677C383.302 78.8677 383.092 79.2997 383.092 79.8637C383.092 80.2717 383.188 80.5957 383.38 80.8357C383.584 81.0637 383.926 81.2497 384.406 81.3937C384.898 81.5377 385.57 81.6817 386.422 81.8257C386.986 81.9217 387.532 82.0417 388.06 82.1857C388.6 82.3297 389.086 82.5457 389.518 82.8337C389.95 83.1097 390.286 83.4937 390.526 83.9857C390.778 84.4657 390.904 85.0897 390.904 85.8577C390.904 87.0097 390.46 87.9457 389.572 88.6657C388.684 89.3857 387.376 89.7457 385.648 89.7457ZM397.272 89.7457C396.324 89.7457 395.49 89.5477 394.77 89.1517C394.062 88.7557 393.51 88.1857 393.114 87.4417C392.718 86.6977 392.52 85.8157 392.52 84.7957C392.52 83.8117 392.706 82.9477 393.078 82.2037C393.462 81.4597 394.008 80.8777 394.716 80.4577C395.424 80.0377 396.276 79.8277 397.272 79.8277C398.208 79.8277 399.03 80.0317 399.738 80.4397C400.446 80.8357 400.998 81.4057 401.394 82.1497C401.79 82.8817 401.988 83.7637 401.988 84.7957C401.988 85.7797 401.796 86.6437 401.412 87.3877C401.04 88.1317 400.5 88.7137 399.792 89.1337C399.096 89.5417 398.256 89.7457 397.272 89.7457ZM397.254 87.8917C397.998 87.8917 398.592 87.6337 399.036 87.1177C399.492 86.5897 399.72 85.8157 399.72 84.7957C399.72 83.7757 399.498 83.0017 399.054 82.4737C398.61 81.9457 398.016 81.6817 397.272 81.6817C396.528 81.6817 395.928 81.9457 395.472 82.4737C395.016 83.0017 394.788 83.7757 394.788 84.7957C394.788 85.8037 395.01 86.5717 395.454 87.0997C395.898 87.6277 396.498 87.8917 397.254 87.8917ZM408.328 89.7457C407.38 89.7457 406.552 89.5417 405.844 89.1337C405.136 88.7257 404.59 88.1497 404.206 87.4057C403.822 86.6617 403.63 85.7917 403.63 84.7957C403.63 83.7997 403.822 82.9297 404.206 82.1857C404.602 81.4417 405.154 80.8657 405.862 80.4577C406.582 80.0377 407.428 79.8277 408.4 79.8277C409.192 79.8277 409.9 79.9777 410.524 80.2777C411.148 80.5657 411.646 80.9737 412.018 81.5017C412.39 82.0297 412.6 82.6357 412.648 83.3197H410.452C410.344 82.7797 410.098 82.3717 409.714 82.0957C409.33 81.8197 408.874 81.6817 408.346 81.6817C407.554 81.6817 406.948 81.9697 406.528 82.5457C406.108 83.1097 405.898 83.8597 405.898 84.7957C405.898 85.8157 406.12 86.5897 406.564 87.1177C407.008 87.6337 407.596 87.8917 408.328 87.8917C408.94 87.8917 409.432 87.7357 409.804 87.4237C410.188 87.1117 410.422 86.6977 410.506 86.1817H412.684C412.636 86.9017 412.414 87.5317 412.018 88.0717C411.634 88.5997 411.124 89.0137 410.488 89.3137C409.852 89.6017 409.132 89.7457 408.328 89.7457ZM414.471 89.5837V80.0077H416.721V89.5837H414.471ZM415.605 78.7117C415.245 78.7117 414.945 78.6157 414.705 78.4237C414.477 78.2197 414.363 77.9497 414.363 77.6137C414.363 77.2657 414.477 76.9957 414.705 76.8037C414.945 76.6117 415.245 76.5157 415.605 76.5157C415.965 76.5157 416.259 76.6117 416.487 76.8037C416.727 76.9957 416.847 77.2657 416.847 77.6137C416.847 77.9497 416.727 78.2197 416.487 78.4237C416.259 78.6157 415.965 78.7117 415.605 78.7117ZM422.584 89.7457C421.792 89.7457 421.102 89.5477 420.514 89.1517C419.926 88.7557 419.47 88.1917 419.146 87.4597C418.822 86.7157 418.66 85.8277 418.66 84.7957C418.66 83.2237 419.02 82.0057 419.74 81.1417C420.46 80.2657 421.408 79.8277 422.584 79.8277C423.34 79.8277 423.988 80.0017 424.528 80.3497C425.08 80.6977 425.464 81.1597 425.68 81.7357H425.806L425.896 80.0077H428.02V89.5837H425.896L425.806 87.8377H425.68C425.464 88.4017 425.08 88.8637 424.528 89.2237C423.988 89.5717 423.34 89.7457 422.584 89.7457ZM423.376 87.9097C424.156 87.9097 424.75 87.6577 425.158 87.1537C425.566 86.6377 425.77 86.0197 425.77 85.2997V84.2737C425.77 83.5297 425.56 82.9117 425.14 82.4197C424.72 81.9157 424.15 81.6637 423.43 81.6637C422.626 81.6637 422.008 81.9457 421.576 82.5097C421.156 83.0617 420.946 83.8237 420.946 84.7957C420.946 85.7557 421.15 86.5177 421.558 87.0817C421.978 87.6337 422.584 87.9097 423.376 87.9097ZM430.432 89.5837V76.4617H432.682V89.5837H430.432ZM439.153 89.5837V76.4617H442.933L445.075 82.9597L445.939 86.3077H446.065L446.947 82.9597L449.071 76.4617H452.833V89.5837H450.529V83.2297L450.601 78.6757H450.457L449.179 82.9057L447.019 89.5837H444.985L442.843 82.9057L441.547 78.6757H441.421L441.475 83.2297V89.5837H439.153ZM459.353 89.7457C458.381 89.7457 457.553 89.5477 456.869 89.1517C456.185 88.7437 455.663 88.1737 455.303 87.4417C454.955 86.6977 454.781 85.8337 454.781 84.8497C454.781 83.8297 454.961 82.9477 455.321 82.2037C455.681 81.4477 456.197 80.8657 456.869 80.4577C457.541 80.0377 458.345 79.8277 459.281 79.8277C460.325 79.8277 461.183 80.0617 461.855 80.5297C462.539 80.9977 463.031 81.6397 463.331 82.4557C463.631 83.2717 463.739 84.2077 463.655 85.2637H456.977C456.977 86.1877 457.193 86.8837 457.625 87.3517C458.057 87.8197 458.633 88.0537 459.353 88.0537C459.917 88.0537 460.373 87.9337 460.721 87.6937C461.069 87.4417 461.309 87.1177 461.441 86.7217H463.565C463.421 87.6577 462.959 88.3957 462.179 88.9357C461.411 89.4757 460.469 89.7457 459.353 89.7457ZM459.281 81.5377C458.621 81.5377 458.087 81.7357 457.679 82.1317C457.283 82.5277 457.055 83.0857 456.995 83.8057H461.441C461.417 83.0377 461.201 82.4677 460.793 82.0957C460.397 81.7237 459.893 81.5377 459.281 81.5377ZM469.043 89.7457C468.251 89.7457 467.561 89.5477 466.973 89.1517C466.385 88.7557 465.929 88.1917 465.605 87.4597C465.281 86.7157 465.119 85.8277 465.119 84.7957C465.119 83.2237 465.479 82.0057 466.199 81.1417C466.919 80.2657 467.867 79.8277 469.043 79.8277C469.799 79.8277 470.447 80.0017 470.987 80.3497C471.539 80.6977 471.923 81.1597 472.139 81.7357H472.229V76.4617H474.479V89.5837H472.355L472.265 87.8377H472.139C471.923 88.4017 471.539 88.8637 470.987 89.2237C470.447 89.5717 469.799 89.7457 469.043 89.7457ZM469.835 87.9097C470.615 87.9097 471.209 87.6577 471.617 87.1537C472.025 86.6377 472.229 86.0197 472.229 85.2997V84.2737C472.229 83.5297 472.019 82.9117 471.599 82.4197C471.179 81.9157 470.609 81.6637 469.889 81.6637C469.085 81.6637 468.467 81.9457 468.035 82.5097C467.615 83.0617 467.405 83.8237 467.405 84.7957C467.405 85.7557 467.609 86.5177 468.017 87.0817C468.437 87.6337 469.043 87.9097 469.835 87.9097ZM476.891 89.5837V80.0077H479.141V89.5837H476.891ZM478.025 78.7117C477.665 78.7117 477.365 78.6157 477.125 78.4237C476.897 78.2197 476.783 77.9497 476.783 77.6137C476.783 77.2657 476.897 76.9957 477.125 76.8037C477.365 76.6117 477.665 76.5157 478.025 76.5157C478.385 76.5157 478.679 76.6117 478.907 76.8037C479.147 76.9957 479.267 77.2657 479.267 77.6137C479.267 77.9497 479.147 78.2197 478.907 78.4237C478.679 78.6157 478.385 78.7117 478.025 78.7117ZM485.004 89.7457C484.212 89.7457 483.522 89.5477 482.934 89.1517C482.346 88.7557 481.89 88.1917 481.566 87.4597C481.242 86.7157 481.08 85.8277 481.08 84.7957C481.08 83.2237 481.44 82.0057 482.16 81.1417C482.88 80.2657 483.828 79.8277 485.004 79.8277C485.76 79.8277 486.408 80.0017 486.948 80.3497C487.5 80.6977 487.884 81.1597 488.1 81.7357H488.226L488.316 80.0077H490.44V89.5837H488.316L488.226 87.8377H488.1C487.884 88.4017 487.5 88.8637 486.948 89.2237C486.408 89.5717 485.76 89.7457 485.004 89.7457ZM485.796 87.9097C486.576 87.9097 487.17 87.6577 487.578 87.1537C487.986 86.6377 488.19 86.0197 488.19 85.2997V84.2737C488.19 83.5297 487.98 82.9117 487.56 82.4197C487.14 81.9157 486.57 81.6637 485.85 81.6637C485.046 81.6637 484.428 81.9457 483.996 82.5097C483.576 83.0617 483.366 83.8237 483.366 84.7957C483.366 85.7557 483.57 86.5177 483.978 87.0817C484.398 87.6337 485.004 87.9097 485.796 87.9097ZM496.897 89.5837V76.4617H503.359C504.679 76.4617 505.717 76.7617 506.473 77.3617C507.241 77.9617 507.625 78.8497 507.625 80.0257C507.625 80.8417 507.409 81.5317 506.977 82.0957C506.557 82.6477 505.969 83.0257 505.213 83.2297V83.3377C505.969 83.4697 506.515 83.7517 506.851 84.1837C507.187 84.6037 507.355 85.1797 507.355 85.9117V88.1257C507.355 88.3537 507.361 88.5937 507.373 88.8457C507.397 89.0857 507.463 89.3317 507.571 89.5837H505.159C505.087 89.4157 505.033 89.2057 504.997 88.9537C504.973 88.7017 504.961 88.4197 504.961 88.1077V86.3257C504.961 85.7257 504.811 85.2637 504.511 84.9397C504.223 84.6157 503.647 84.4537 502.783 84.4537H499.273V89.5837H496.897ZM502.819 78.4417H499.273V82.5637H502.819C503.659 82.5637 504.259 82.3657 504.619 81.9697C504.991 81.5617 505.177 81.0577 505.177 80.4577C505.177 79.7377 504.955 79.2217 504.511 78.9097C504.079 78.5977 503.515 78.4417 502.819 78.4417ZM513.705 89.7457C512.733 89.7457 511.905 89.5477 511.221 89.1517C510.537 88.7437 510.015 88.1737 509.655 87.4417C509.307 86.6977 509.133 85.8337 509.133 84.8497C509.133 83.8297 509.313 82.9477 509.673 82.2037C510.033 81.4477 510.549 80.8657 511.221 80.4577C511.893 80.0377 512.697 79.8277 513.633 79.8277C514.677 79.8277 515.535 80.0617 516.207 80.5297C516.891 80.9977 517.383 81.6397 517.683 82.4557C517.983 83.2717 518.091 84.2077 518.007 85.2637H511.329C511.329 86.1877 511.545 86.8837 511.977 87.3517C512.409 87.8197 512.985 88.0537 513.705 88.0537C514.269 88.0537 514.725 87.9337 515.073 87.6937C515.421 87.4417 515.661 87.1177 515.793 86.7217H517.917C517.773 87.6577 517.311 88.3957 516.531 88.9357C515.763 89.4757 514.821 89.7457 513.705 89.7457ZM513.633 81.5377C512.973 81.5377 512.439 81.7357 512.031 82.1317C511.635 82.5277 511.407 83.0857 511.347 83.8057H515.793C515.769 83.0377 515.553 82.4677 515.145 82.0957C514.749 81.7237 514.245 81.5377 513.633 81.5377ZM523.953 89.7457C522.981 89.7457 522.153 89.5477 521.469 89.1517C520.785 88.7437 520.263 88.1737 519.903 87.4417C519.555 86.6977 519.381 85.8337 519.381 84.8497C519.381 83.8297 519.561 82.9477 519.921 82.2037C520.281 81.4477 520.797 80.8657 521.469 80.4577C522.141 80.0377 522.945 79.8277 523.881 79.8277C524.925 79.8277 525.783 80.0617 526.455 80.5297C527.139 80.9977 527.631 81.6397 527.931 82.4557C528.231 83.2717 528.339 84.2077 528.255 85.2637H521.577C521.577 86.1877 521.793 86.8837 522.225 87.3517C522.657 87.8197 523.233 88.0537 523.953 88.0537C524.517 88.0537 524.973 87.9337 525.321 87.6937C525.669 87.4417 525.909 87.1177 526.041 86.7217H528.165C528.021 87.6577 527.559 88.3957 526.779 88.9357C526.011 89.4757 525.069 89.7457 523.953 89.7457ZM523.881 81.5377C523.221 81.5377 522.687 81.7357 522.279 82.1317C521.883 82.5277 521.655 83.0857 521.595 83.8057H526.041C526.017 83.0377 525.801 82.4677 525.393 82.0957C524.997 81.7237 524.493 81.5377 523.881 81.5377ZM530.047 89.5837V76.4617H532.297V89.5837H530.047ZM538.233 89.7637C536.973 89.7637 535.977 89.4817 535.245 88.9177C534.513 88.3537 534.135 87.6037 534.111 86.6677H536.325C536.373 87.1837 536.571 87.5617 536.919 87.8017C537.267 88.0297 537.723 88.1437 538.287 88.1437C538.863 88.1437 539.295 88.0417 539.583 87.8377C539.883 87.6217 540.033 87.3277 540.033 86.9557C540.033 86.5117 539.877 86.2117 539.565 86.0557C539.253 85.8877 538.731 85.7497 537.999 85.6417C536.775 85.4617 535.863 85.1737 535.263 84.7777C534.663 84.3697 534.363 83.7097 534.363 82.7977C534.363 82.1977 534.525 81.6757 534.849 81.2317C535.185 80.7877 535.647 80.4457 536.235 80.2057C536.823 79.9537 537.507 79.8277 538.287 79.8277C539.427 79.8277 540.339 80.0977 541.023 80.6377C541.719 81.1657 542.085 81.8737 542.121 82.7617H539.907C539.883 82.2937 539.721 81.9577 539.421 81.7537C539.121 81.5377 538.725 81.4297 538.233 81.4297C537.729 81.4297 537.333 81.5317 537.045 81.7357C536.757 81.9397 536.613 82.2277 536.613 82.5997C536.613 83.0077 536.787 83.2957 537.135 83.4637C537.483 83.6317 538.059 83.7697 538.863 83.8777C540.015 84.0337 540.879 84.3157 541.455 84.7237C542.031 85.1317 542.319 85.8097 542.319 86.7577C542.319 87.7177 541.941 88.4617 541.185 88.9897C540.441 89.5057 539.457 89.7637 538.233 89.7637Z" fill="black"/>
<rect x="346" y="133" width="152" height="270" rx="8" fill="#DC3545" stroke="#BD2130" stroke-width="2"/>
<path d="M498.707 433.707C499.098 433.317 499.098 432.683 498.707 432.293L492.343 425.929C491.953 425.538 491.319 425.538 490.929 425.929C490.538 426.319 490.538 426.953 490.929 427.343L496.586 433L490.929 438.657C490.538 439.047 490.538 439.681 490.929 440.071C491.319 440.462 491.953 440.462 492.343 440.071L498.707 433.707ZM346 433V434H498V433V432H346V433Z" fill="black"/>
<path d="M402.433 432V421.94H398.873V420.04H399.453C400.413 420.04 401.153 419.813 401.673 419.36C402.193 418.907 402.486 418.313 402.553 417.58H404.933V432H402.433ZM412.58 432.2C410.873 432.2 409.567 431.553 408.66 430.26C407.753 428.967 407.3 427.153 407.3 424.82C407.3 423.14 407.52 421.753 407.96 420.66C408.4 419.567 409.013 418.753 409.8 418.22C410.6 417.687 411.527 417.42 412.58 417.42C414.3 417.42 415.607 418.067 416.5 419.36C417.407 420.653 417.86 422.473 417.86 424.82C417.86 426.487 417.64 427.867 417.2 428.96C416.76 430.053 416.14 430.867 415.34 431.4C414.553 431.933 413.633 432.2 412.58 432.2ZM412.58 430.08C413.473 430.08 414.153 429.68 414.62 428.88C415.087 428.067 415.32 426.713 415.32 424.82C415.32 422.913 415.087 421.553 414.62 420.74C414.153 419.927 413.473 419.52 412.58 419.52C411.7 419.52 411.02 419.927 410.54 420.74C410.073 421.553 409.84 422.913 409.84 424.82C409.84 426.713 410.073 428.067 410.54 428.88C411.02 429.68 411.7 430.08 412.58 430.08ZM425.018 432.2C423.925 432.2 422.978 432.033 422.178 431.7C421.391 431.353 420.785 430.873 420.358 430.26C419.945 429.647 419.738 428.94 419.738 428.14C419.738 427.26 420.005 426.5 420.538 425.86C421.071 425.22 421.785 424.8 422.678 424.6V424.48C421.958 424.28 421.371 423.887 420.918 423.3C420.465 422.713 420.238 422.033 420.238 421.26C420.238 420.06 420.671 419.12 421.538 418.44C422.418 417.76 423.578 417.42 425.018 417.42C426.511 417.42 427.678 417.773 428.518 418.48C429.371 419.173 429.798 420.1 429.798 421.26C429.798 422.033 429.571 422.713 429.118 423.3C428.665 423.887 428.078 424.28 427.358 424.48V424.6C428.251 424.8 428.965 425.22 429.498 425.86C430.031 426.5 430.298 427.26 430.298 428.14C430.298 428.98 430.078 429.707 429.638 430.32C429.198 430.92 428.578 431.387 427.778 431.72C426.991 432.04 426.071 432.2 425.018 432.2ZM425.018 423.62C425.858 423.62 426.465 423.42 426.838 423.02C427.211 422.607 427.398 422.113 427.398 421.54C427.398 420.993 427.211 420.513 426.838 420.1C426.478 419.687 425.871 419.48 425.018 419.48C424.165 419.48 423.551 419.687 423.178 420.1C422.818 420.513 422.638 420.993 422.638 421.54C422.638 422.113 422.825 422.607 423.198 423.02C423.571 423.42 424.178 423.62 425.018 423.62ZM425.018 430.06C425.845 430.06 426.505 429.86 426.998 429.46C427.491 429.047 427.738 428.487 427.738 427.78C427.738 427.153 427.525 426.62 427.098 426.18C426.671 425.74 425.978 425.52 425.018 425.52C424.058 425.52 423.365 425.74 422.938 426.18C422.511 426.62 422.298 427.153 422.298 427.78C422.298 428.487 422.545 429.047 423.038 429.46C423.531 429.86 424.191 430.06 425.018 430.06ZM437.424 432.2C435.717 432.2 434.41 431.553 433.504 430.26C432.597 428.967 432.144 427.153 432.144 424.82C432.144 423.14 432.364 421.753 432.804 420.66C433.244 419.567 433.857 418.753 434.644 418.22C435.444 417.687 436.37 417.42 437.424 417.42C439.144 417.42 440.45 418.067 441.344 419.36C442.25 420.653 442.704 422.473 442.704 424.82C442.704 426.487 442.484 427.867 442.044 428.96C441.604 430.053 440.984 430.867 440.184 431.4C439.397 431.933 438.477 432.2 437.424 432.2ZM437.424 430.08C438.317 430.08 438.997 429.68 439.464 428.88C439.93 428.067 440.164 426.713 440.164 424.82C440.164 422.913 439.93 421.553 439.464 420.74C438.997 419.927 438.317 419.52 437.424 419.52C436.544 419.52 435.864 419.927 435.384 420.74C434.917 421.553 434.684 422.913 434.684 424.82C434.684 426.713 434.917 428.067 435.384 428.88C435.864 429.68 436.544 430.08 437.424 430.08Z" fill="black"/>
<path d="M313 285.618H302.94V289.178H301.04V288.598C301.04 287.638 300.813 286.898 300.36 286.378C299.907 285.858 299.313 285.565 298.58 285.498V283.118H313V285.618ZM298.38 275.491C298.38 273.758 298.947 272.424 300.08 271.491C301.2 270.558 302.907 270.091 305.2 270.091C307.907 270.091 309.913 270.578 311.22 271.551C312.527 272.511 313.18 273.918 313.18 275.771C313.18 277.184 312.827 278.338 312.12 279.231C311.4 280.124 310.453 280.638 309.28 280.771V278.271C309.867 278.151 310.307 277.858 310.6 277.391C310.88 276.924 311.02 276.378 311.02 275.751C311.02 274.938 310.813 274.298 310.4 273.831C309.973 273.364 309.373 273.038 308.6 272.851C307.813 272.651 306.88 272.544 305.8 272.531V272.651C306.387 272.891 306.867 273.324 307.24 273.951C307.613 274.564 307.8 275.331 307.8 276.251C307.8 277.144 307.613 277.938 307.24 278.631C306.853 279.311 306.327 279.844 305.66 280.231C304.98 280.604 304.187 280.791 303.28 280.791C302.293 280.791 301.433 280.571 300.7 280.131C299.967 279.678 299.4 279.058 299 278.271C298.587 277.471 298.38 276.544 298.38 275.491ZM300.56 275.591C300.56 276.378 300.807 277.018 301.3 277.511C301.793 278.004 302.447 278.251 303.26 278.251C304.06 278.251 304.7 278.011 305.18 277.531C305.66 277.038 305.9 276.398 305.9 275.611C305.9 274.771 305.647 274.104 305.14 273.611C304.62 273.118 303.973 272.871 303.2 272.871C302.387 272.871 301.747 273.124 301.28 273.631C300.8 274.124 300.56 274.778 300.56 275.591ZM313 268.39H312.42C311.527 268.39 310.747 268.217 310.08 267.87C309.4 267.523 308.8 267.077 308.28 266.53C307.747 265.983 307.26 265.403 306.82 264.79C306.38 264.177 305.953 263.597 305.54 263.05C305.113 262.503 304.673 262.057 304.22 261.71C303.767 261.363 303.26 261.19 302.7 261.19C302.02 261.19 301.493 261.397 301.12 261.81C300.747 262.223 300.56 262.777 300.56 263.47C300.56 264.27 300.793 264.89 301.26 265.33C301.727 265.77 302.32 265.983 303.04 265.97V268.45C302.107 268.423 301.293 268.197 300.6 267.77C299.907 267.343 299.373 266.757 299 266.01C298.613 265.25 298.42 264.363 298.42 263.35C298.42 262.39 298.6 261.563 298.96 260.87C299.307 260.163 299.793 259.623 300.42 259.25C301.047 258.863 301.773 258.67 302.6 258.67C303.307 258.67 303.94 258.823 304.5 259.13C305.06 259.423 305.567 259.81 306.02 260.29C306.473 260.77 306.9 261.29 307.3 261.85C307.687 262.41 308.067 262.957 308.44 263.49C308.8 264.01 309.173 264.463 309.56 264.85C309.947 265.237 310.367 265.497 310.82 265.63V258.65H313V268.39ZM313.2 251.526C313.2 253.232 312.553 254.539 311.26 255.446C309.967 256.352 308.153 256.806 305.82 256.806C304.14 256.806 302.753 256.586 301.66 256.146C300.567 255.706 299.753 255.092 299.22 254.306C298.687 253.506 298.42 252.579 298.42 251.526C298.42 249.806 299.067 248.499 300.36 247.606C301.653 246.699 303.473 246.246 305.82 246.246C307.487 246.246 308.867 246.466 309.96 246.906C311.053 247.346 311.867 247.966 312.4 248.766C312.933 249.552 313.2 250.472 313.2 251.526ZM311.08 251.526C311.08 250.632 310.68 249.952 309.88 249.486C309.067 249.019 307.713 248.786 305.82 248.786C303.913 248.786 302.553 249.019 301.74 249.486C300.927 249.952 300.52 250.632 300.52 251.526C300.52 252.406 300.927 253.086 301.74 253.566C302.553 254.032 303.913 254.266 305.82 254.266C307.713 254.266 309.067 254.032 309.88 253.566C310.68 253.086 311.08 252.406 311.08 251.526Z" fill="black"/>
<path d="M314.707 132.293C314.317 131.902 313.683 131.902 313.293 132.293L306.929 138.657C306.538 139.047 306.538 139.681 306.929 140.071C307.319 140.462 307.953 140.462 308.343 140.071L314 134.414L319.657 140.071C320.047 140.462 320.681 140.462 321.071 140.071C321.462 139.681 321.462 139.047 321.071 138.657L314.707 132.293ZM314 403H315V133H314H313V403H314Z" fill="black"/>
</svg>
